<?xml version="1.0" standalone="no"?>
<!DOCTYPE svg PUBLIC "-//W3C//DTD SVG 20010904//EN"
 "http://www.w3.org/TR/2001/REC-SVG-20010904/DTD/svg10.dtd">
<svg version="1.0" xmlns="http://www.w3.org/2000/svg"
 width="1080.000000pt" height="1350.000000pt" viewBox="0 0 1080.000000 1350.000000"
 preserveAspectRatio="xMidYMid meet">

<g transform="translate(0.000000,1350.000000) scale(0.100000,-0.100000)"
fill="#000000" stroke="none">
<path d="M0 8700 l0 -4800 25 0 c33 0 33 -27 0 -42 l-25 -11 0 -1924 0 -1923
5400 0 5400 0 0 3363 c0 2559 -3 3366 -12 3375 -9 9 -9 18 0 37 9 20 12 835
12 3375 l0 3350 -5400 0 -5400 0 0 -4800z m5443 563 c5 -3 6 -15 3 -27 -4 -15
1 -28 15 -40 16 -14 18 -20 9 -32 -10 -11 -9 -14 4 -14 20 0 21 -19 1 -26 -10
-4 -13 -14 -9 -30 5 -19 1 -24 -20 -30 -14 -3 -26 -12 -26 -19 0 -28 -31 -46
-68 -39 -68 11 -122 37 -122 59 0 11 -7 30 -15 43 -13 18 -14 29 -5 62 6 22
20 46 30 53 11 6 20 17 20 24 0 19 60 33 120 27 30 -4 59 -8 63 -11z m1257
-43 c0 -5 10 -10 23 -10 34 0 59 -53 52 -110 -9 -67 -68 -111 -135 -102 -18 3
-76 29 -83 37 -4 6 -5 20 -2 32 4 16 -1 23 -15 28 -19 6 -18 9 16 53 34 45 90
81 127 82 9 0 17 -4 17 -10z m-117 -254 c45 -19 127 -44 182 -55 107 -24 137
-36 65 -26 -45 6 -45 6 -15 -8 17 -8 67 -26 113 -41 46 -16 81 -30 79 -33 -6
-5 -69 15 -232 73 -66 23 -147 48 -180 54 -43 9 -55 15 -41 20 16 5 12 9 -22
23 -23 9 -42 19 -42 22 0 9 9 6 93 -29z m-66 -12 c-3 -3 -12 -4 -19 -1 -8 3
-5 6 6 6 11 1 17 -2 13 -5z m413 -80 c0 -2 -9 -4 -20 -4 -11 0 -20 4 -20 9 0
5 9 7 20 4 11 -3 20 -7 20 -9z m-900 -14 c0 -5 -4 -10 -10 -10 -5 0 -10 5 -10
10 0 6 5 10 10 10 6 0 10 -4 10 -10z m-560 -65 c0 -2 -10 -9 -22 -15 -22 -11
-22 -10 -4 4 21 17 26 19 26 11z m538 -11 c29 -20 29 -37 0 -28 -22 7 -38 21
-38 37 0 11 14 8 38 -9z m-639 -48 c-2 -2 -15 -9 -29 -15 -24 -11 -24 -11 -6
3 16 13 49 24 35 12z m645 -12 c15 -14 22 -44 11 -44 -12 0 -54 44 -49 52 8
12 21 10 38 -8z m-809 -74 c-3 -5 -12 -10 -18 -10 -7 0 -6 4 3 10 19 12 23 12
15 0z m806 0 c28 -15 25 -43 -3 -34 -25 7 -39 24 -32 36 7 10 11 10 35 -2z m1
-77 c10 -9 18 -25 18 -35 0 -19 -1 -18 -30 2 -30 21 -40 50 -18 50 6 0 20 -7
30 -17z m0 -80 c22 -19 26 -62 5 -44 -8 6 -16 8 -20 5 -8 -8 -29 35 -22 46 9
14 16 13 37 -7z m-1 -83 c18 -10 27 -40 11 -40 -13 0 -52 30 -52 41 0 12 17
12 41 -1z m16 -95 c11 -30 -4 -35 -30 -11 -31 29 -28 53 4 35 11 -6 23 -17 26
-24z m-9 -67 c7 -7 12 -20 12 -31 0 -17 -2 -17 -30 3 -16 12 -30 26 -30 31 0
13 34 11 48 -3z m2 -88 c27 -27 26 -43 -2 -34 -22 7 -47 31 -48 47 0 14 30 7
50 -13z m10 -110 c5 -10 6 -21 2 -24 -12 -7 -64 43 -57 55 8 12 42 -6 55 -31z
m-12 -66 c20 -14 31 -44 16 -44 -12 0 -64 42 -64 51 0 14 23 11 48 -7z m-7
-125 c27 -19 40 -49 20 -49 -12 0 -61 47 -61 60 0 15 8 13 41 -11z m3 -100
c25 -19 36 -49 18 -49 -10 0 -62 53 -62 63 0 13 17 7 44 -14z m20 -132 c14
-22 1 -33 -18 -16 -8 8 -22 20 -31 27 -8 7 -13 18 -9 23 7 12 42 -9 58 -34z
m-20 -88 c14 -11 26 -29 26 -40 0 -26 -6 -24 -40 11 -47 48 -37 69 14 29z
m-1738 -26 c-11 -11 -17 4 -9 23 7 18 8 18 11 1 2 -10 1 -21 -2 -24z m1609
-29 c20 -15 20 -15 1 -30 -27 -19 -43 -18 -55 4 -7 13 -6 23 1 30 16 16 29 15
53 -4z m124 -35 c35 -12 43 -35 9 -25 -13 3 -29 6 -35 6 -7 0 -13 7 -13 15 0
18 -1 18 39 4z m6 -93 c25 -23 33 -36 25 -41 -7 -4 -15 -3 -19 2 -3 6 -16 15
-28 22 -13 6 -23 21 -23 31 0 26 1 26 45 -14z m168 -33 c4 -3 2 -12 -4 -20 -7
-8 -8 -13 -1 -13 5 0 9 -11 8 -25 -2 -45 -23 -27 -23 20 0 43 5 53 20 38z
m-164 -62 c46 -38 32 -61 -15 -23 -19 15 -34 33 -34 40 0 18 11 14 49 -17z
m169 -50 c3 -8 -1 -12 -9 -9 -7 2 -15 10 -17 17 -3 8 1 12 9 9 7 -2 15 -10 17
-17z m-171 -37 c29 -22 45 -54 26 -54 -10 0 -73 62 -73 72 0 13 12 9 47 -18z
m171 -13 c3 -8 -1 -12 -9 -9 -7 2 -15 10 -17 17 -3 8 1 12 9 9 7 -2 15 -10 17
-17z m0 -57 c-10 -10 -28 6 -28 24 0 15 1 15 17 -1 9 -9 14 -19 11 -23z m-168
-26 c19 -11 30 -23 23 -25 -15 -5 -73 24 -73 37 0 15 11 12 50 -12z m165 -8
c3 -5 -1 -10 -9 -10 -9 0 -16 5 -16 10 0 6 4 10 9 10 6 0 13 -4 16 -10z m5
-42 c0 -13 -23 -5 -28 10 -2 7 2 10 12 6 9 -3 16 -11 16 -16z m-175 -12 c19
-8 35 -20 35 -25 0 -14 -1 -14 -44 4 -20 8 -36 20 -36 25 0 13 4 13 45 -4z
m173 -25 c3 -8 -1 -12 -9 -9 -7 2 -15 10 -17 17 -3 8 1 12 9 9 7 -2 15 -10 17
-17z m242 -15 c0 -8 -7 -17 -16 -20 -19 -7 -47 12 -38 25 9 15 54 10 54 -5z
m-399 -25 c13 -11 22 -22 18 -25 -7 -7 -79 26 -79 36 0 15 38 8 61 -11z m154
-1 c3 -5 -1 -10 -9 -10 -9 0 -16 5 -16 10 0 6 4 10 9 10 6 0 13 -4 16 -10z
m-5 -35 c10 -12 10 -15 -4 -15 -9 0 -16 7 -16 15 0 8 2 15 4 15 2 0 9 -7 16
-15z m-140 -15 c8 -5 12 -11 9 -14 -8 -8 -79 6 -79 15 0 12 51 11 70 -1z
m-471 -38 c30 -11 60 -36 61 -53 0 -3 -12 -4 -27 -1 l-28 5 32 -27 c40 -34 51
-82 33 -156 -6 -30 -15 -77 -19 -104 l-8 -49 19 23 c10 13 23 30 27 38 5 8 13
12 20 8 16 -10 14 -36 -2 -30 -8 3 -19 -1 -24 -8 -16 -20 -26 -95 -14 -103 6
-3 11 -11 11 -17 0 -7 -6 -6 -15 2 -9 8 -15 9 -15 2 0 -6 5 -14 10 -17 16 -10
11 -25 -6 -18 -9 3 -21 -3 -30 -16 -8 -11 -23 -21 -32 -21 -9 0 -24 -5 -32
-10 -11 -7 -4 -8 23 -5 35 5 37 4 23 -11 -20 -19 -20 -23 1 -48 10 -12 11 -15
3 -8 -19 16 -30 15 -30 -3 0 -8 -4 -15 -8 -15 -5 0 -14 -11 -20 -25 -14 -31
-33 -32 -58 -4 -16 18 -19 37 -19 143 0 96 -3 121 -14 121 -15 0 -32 -50 -57
-175 -18 -92 -31 -216 -15 -150 5 19 12 56 16 83 7 53 25 64 25 16 0 -25 3
-30 16 -25 14 5 15 4 5 -8 -11 -12 -8 -20 13 -41 14 -14 35 -25 48 -25 20 -1
21 -2 6 -11 -22 -12 -24 -49 -3 -49 8 0 15 6 16 13 0 8 2 8 5 1 3 -7 14 -10
24 -7 23 6 27 43 5 43 -19 0 -19 9 1 32 14 14 14 20 4 33 -15 18 0 20 19 3 11
-11 13 -9 8 9 -3 14 -1 20 8 17 7 -3 18 9 25 28 8 18 19 36 26 40 6 4 15 28
18 53 4 25 11 45 17 45 5 0 9 16 9 35 0 19 4 35 9 35 5 0 11 10 13 23 3 21 12
-11 75 -278 14 -60 30 -117 35 -125 7 -12 8 -11 4 4 -4 10 -13 57 -20 105 -8
47 -19 108 -26 135 -16 74 -6 65 19 -17 12 -39 28 -84 36 -99 7 -15 19 -53 26
-85 12 -57 29 -93 29 -62 0 28 -72 243 -110 329 -21 47 -41 98 -45 115 l-6 29
21 -19 c12 -11 39 -56 60 -100 46 -97 124 -321 116 -334 -4 -5 -1 -11 6 -13
25 -9 -4 -26 -55 -34 -62 -9 -98 -10 -377 -13 -208 -2 -295 3 -305 19 -7 11
58 224 88 292 14 29 41 78 61 108 37 55 47 61 22 12 -24 -48 -96 -269 -96
-296 0 -14 6 -26 13 -26 8 0 24 46 44 123 36 144 71 230 90 223 7 -3 13 -1 13
4 0 5 6 7 13 4 18 -7 19 22 3 66 -14 37 -36 123 -36 140 0 6 7 10 15 10 8 0
15 4 15 10 0 5 -7 7 -16 3 -14 -5 -15 -1 -9 28 4 19 14 40 23 47 14 11 10 16
-10 13 -5 0 -8 5 -8 12 0 19 38 57 58 57 9 1 28 7 42 15 14 7 27 10 30 6 3 -4
20 -13 39 -19z m636 18 c8 0 12 -11 11 -30 -1 -27 -4 -30 -25 -28 -14 2 -26 9
-29 17 -3 9 2 11 17 6 15 -5 21 -2 21 9 0 9 -9 16 -20 16 -11 0 -20 5 -20 11
0 6 7 8 16 5 9 -3 21 -6 29 -6z m3905 -25 c-7 -9 -15 -13 -17 -11 -7 7 7 26
19 26 6 0 6 -6 -2 -15z m-4071 -20 c19 -19 8 -29 -16 -16 -10 5 -26 12 -35 15
-10 3 -18 11 -18 17 0 14 50 3 69 -16z m-4878 -22 c-4 -28 -6 -32 -9 -15 -3
22 3 52 11 52 1 0 1 -17 -2 -37z m4224 -63 c-6 -21 -8 -22 -16 -8 -5 9 -6 31
-2 49 6 32 6 32 15 9 5 -14 6 -36 3 -50z m305 13 c0 -26 4 -33 20 -33 15 0 20
-7 20 -28 0 -16 -7 -37 -15 -48 -14 -19 -14 -19 -15 3 0 12 -9 42 -20 68 -12
29 -18 56 -14 72 9 33 24 11 24 -34z m4360 47 c0 -5 -5 -10 -11 -10 -5 0 -7 5
-4 10 3 6 8 10 11 10 2 0 4 -4 4 -10z m-3835 -10 c3 -5 1 -10 -4 -10 -6 0 -11
5 -11 10 0 6 2 10 4 10 3 0 8 -4 11 -10z m-25 -10 c0 -5 -7 -10 -15 -10 -8 0
-15 5 -15 10 0 6 7 10 15 10 8 0 15 -4 15 -10z m-154 -14 c10 -8 16 -17 12
-21 -8 -8 -78 16 -78 27 0 13 45 9 66 -6z m149 -16 c3 -5 -1 -10 -9 -10 -9 0
-16 5 -16 10 0 6 4 10 9 10 6 0 13 -4 16 -10z m35 -36 c0 -19 -61 -15 -68 4
-3 9 3 11 22 6 17 -4 26 -2 26 6 0 6 5 8 10 5 6 -3 10 -13 10 -21z m-126 7 c3
-5 0 -11 -8 -14 -15 -6 -26 1 -26 15 0 11 27 10 34 -1z m-48 -33 c11 -18 -4
-19 -41 -4 -44 19 -39 40 5 24 17 -5 33 -14 36 -20z m-675 10 c1 -7 2 -24 3
-38 0 -14 7 -35 14 -47 14 -24 16 -43 5 -43 -13 0 -62 111 -56 126 6 17 33 18
34 2z m-4219 -35 c-6 -65 -10 -70 -11 -15 0 28 3 52 7 52 4 0 6 -17 4 -37z
m5068 17 c3 -1 -6 -6 -19 -11 -19 -7 -28 -6 -40 6 -14 14 -12 15 19 11 19 -3
37 -5 40 -6z m2 -25 c10 -4 13 -37 12 -148 -1 -78 1 -128 5 -112 11 52 16 15
16 -125 l0 -135 -23 2 c-13 2 -21 -1 -17 -7 8 -13 5 -12 -34 1 -38 13 -42 34
-5 25 19 -5 25 -3 22 6 -3 7 -14 14 -26 16 -12 2 -22 8 -22 13 0 6 10 9 22 7
11 -2 23 2 25 9 2 6 -6 13 -18 15 -12 2 -24 9 -27 16 -3 9 2 10 22 2 14 -5 26
-6 26 -1 0 5 -11 12 -25 15 -38 10 -32 34 6 28 22 -3 30 -1 25 7 -4 6 -11 9
-16 6 -13 -8 -40 6 -40 21 0 11 4 12 19 4 24 -12 31 -13 31 -1 0 5 -10 11 -22
13 -13 2 -24 11 -26 21 -3 16 -1 17 16 8 30 -16 47 -14 33 2 -6 8 -9 16 -6 19
3 2 -5 4 -17 4 -11 -1 -23 5 -25 12 -4 9 2 11 21 6 15 -3 26 -2 26 4 0 5 -11
13 -25 16 -14 4 -25 13 -25 21 0 8 -4 15 -10 15 -5 0 -10 7 -10 16 0 13 8 15
35 12 19 -2 35 -1 35 3 0 4 3 14 6 23 4 10 1 16 -10 16 -10 0 -13 -6 -10 -15
4 -8 2 -15 -2 -15 -19 0 -29 17 -30 48 0 24 4 32 15 30 9 -2 16 -10 16 -17 0
-8 5 -16 11 -18 7 -2 10 6 9 19 -1 13 -3 31 -4 41 0 9 -7 17 -15 17 -7 0 -20
7 -27 17 -13 15 -11 16 14 9 16 -4 27 -2 27 4 0 11 3 12 22 5z m-528 -20 c6
-18 -2 -45 -15 -45 -5 0 -9 14 -9 30 0 32 14 40 24 15z m327 -31 c31 -19 38
-29 30 -37 -8 -8 -14 -8 -19 -2 -4 6 -19 18 -34 28 -16 10 -28 22 -28 27 0 15
6 13 51 -16z m164 -5 c11 -17 0 -20 -21 -4 -17 13 -17 14 -2 15 9 0 20 -5 23
-11z m190 -28 c3 -5 1 -13 -5 -16 -15 -9 -43 3 -35 15 8 13 32 13 40 1z m-675
-21 c0 -5 -7 -7 -15 -4 -8 4 -15 8 -15 10 0 2 7 4 15 4 8 0 15 -4 15 -10z
m-283 -47 c2 -6 -3 -13 -12 -16 -10 -5 -15 0 -15 14 0 21 21 22 27 2z m599 -4
c19 -11 34 -27 34 -35 0 -10 -11 -7 -40 12 -22 15 -40 31 -40 35 0 13 9 11 46
-12z m2252 -24 c-11 -20 -23 -34 -25 -31 -5 5 35 66 42 66 3 0 -5 -16 -17 -35z
m-7175 -5 c-3 -12 -8 -19 -11 -16 -5 6 5 36 12 36 2 0 2 -9 -1 -20z m-661 -16
c-5 -31 -14 -565 -16 -908 -1 -260 -4 -320 -15 -324 -11 -4 -12 18 -7 124 4
71 3 209 -3 306 -6 113 -7 279 -1 460 10 303 16 371 34 365 6 -2 10 -13 8 -23z
m625 -26 c-3 -7 -5 -2 -5 12 0 14 2 19 5 13 2 -7 2 -19 0 -25z m4786 0 c18
-13 37 -22 43 -20 19 4 47 -37 48 -70 1 -18 7 -43 14 -55 7 -12 15 -48 18 -80
4 -32 10 -62 15 -67 5 -6 9 -25 9 -42 0 -23 5 -34 18 -37 10 -2 2 -7 -21 -12
-21 -4 -39 -6 -41 -4 -1 2 -25 72 -53 154 -27 83 -59 174 -71 203 -12 28 -19
52 -16 52 3 0 20 -10 37 -22z m-2843 -24 c0 -8 -4 -14 -10 -14 -5 0 -10 9 -10
21 0 11 5 17 10 14 6 -3 10 -13 10 -21z m2288 -4 c-7 -10 -14 -17 -17 -15 -4
4 18 35 25 35 2 0 -1 -9 -8 -20z m762 -5 c10 -11 11 -15 2 -15 -18 0 -82 28
-82 36 0 11 64 -6 80 -21z m291 10 c-1 -15 -24 -12 -29 3 -3 9 2 13 12 10 10
-1 17 -7 17 -13z m-1101 -9 c0 -8 5 -16 12 -18 8 -3 2 -29 -19 -84 -17 -43
-41 -121 -54 -171 l-23 -93 -33 0 c-39 0 -42 14 -18 94 8 28 27 94 41 146 25
92 53 140 81 140 7 0 13 -6 13 -14z m5036 -353 c2 -164 6 -421 9 -570 2 -150
0 -273 -4 -273 -16 0 -19 39 -20 213 -1 94 -3 350 -7 567 -4 289 -2 390 6 378
7 -12 12 -124 16 -315z m-7286 267 c0 -24 -5 -40 -15 -44 -10 -4 -15 1 -15 15
0 11 4 18 10 14 5 -3 8 9 6 29 -1 19 1 33 6 30 4 -3 8 -22 8 -44z m3045 10
c-6 -10 -32 -3 -52 13 -23 18 -3 25 27 10 17 -8 28 -19 25 -23z m-5005 14 c0
-8 -4 -12 -10 -9 -5 3 -10 10 -10 16 0 5 5 9 10 9 6 0 10 -7 10 -16z m4397 0
c-3 -3 -12 -4 -19 -1 -8 3 -5 6 6 6 11 1 17 -2 13 -5z m-2388 -41 c0 -33 -1
-35 -9 -15 -8 20 -4 52 6 52 2 0 4 -17 3 -37z m3281 12 c0 -8 -4 -15 -10 -15
-5 0 -10 7 -10 15 0 8 5 15 10 15 6 0 10 -7 10 -15z m-304 -49 c10 -8 16 -17
12 -21 -8 -8 -48 13 -48 25 0 14 13 12 36 -4z m284 -16 c0 -5 -4 -10 -10 -10
-5 0 -10 5 -10 10 0 6 5 10 10 10 6 0 10 -4 10 -10z m-5214 -112 c-4 -57 -13
-139 -21 -183 -7 -44 -16 -109 -20 -145 -3 -36 -15 -123 -26 -195 -10 -71 -30
-208 -44 -304 -14 -96 -28 -177 -31 -180 -3 -3 -12 3 -20 13 -8 12 -10 22 -4
26 5 3 14 37 20 75 5 39 22 144 35 235 14 91 30 203 36 250 5 47 14 117 20
155 6 39 17 129 25 200 14 133 19 155 30 155 3 0 3 -46 0 -102z m3379 57 c-91
-44 -120 -45 -35 -1 36 19 74 34 85 34 11 1 -11 -14 -50 -33z m1565 5 c0 -5
-7 -10 -15 -10 -8 0 -15 5 -15 10 0 6 7 10 15 10 8 0 15 -4 15 -10z m2405
-595 c5 -41 4 -57 -3 -50 -21 20 -33 328 -22 565 2 60 6 -7 11 -180 3 -151 10
-302 14 -335z m1192 599 c-3 -3 -12 -4 -19 -1 -8 3 -5 6 6 6 11 1 17 -2 13 -5z
m-6541 -388 c6 -244 5 -288 -7 -284 -11 4 -13 20 -10 69 7 106 6 356 -1 484
-4 83 -3 105 3 70 5 -27 12 -180 15 -339z m1103 306 c-39 -25 -112 -53 -135
-52 -16 1 29 30 46 30 8 0 35 11 60 25 62 33 84 31 29 -3z m1846 -2 c3 -5 -1
-10 -10 -10 -9 0 -13 5 -10 10 3 6 8 10 10 10 2 0 7 -4 10 -10z m182 -17 c3
-7 -7 -8 -28 -4 -18 4 -34 11 -36 18 -3 7 7 8 28 4 18 -4 34 -11 36 -18z
m-1162 -31 c0 -18 -20 -15 -23 4 -3 10 1 15 10 12 7 -3 13 -10 13 -16z m1140
-9 c-8 -7 -21 -10 -29 -7 -25 10 -18 21 13 21 24 0 27 -3 16 -14z m-2205 -3
c0 -5 -7 -10 -15 -10 -8 0 -15 5 -15 10 0 6 7 10 15 10 8 0 15 -4 15 -10z
m2251 -32 c23 -28 24 -42 3 -59 -12 -10 -20 -10 -35 -1 -10 7 -28 12 -39 12
-11 0 -20 5 -20 10 0 12 7 12 48 1 18 -6 32 -6 32 -1 0 5 -16 12 -35 16 -35 6
-53 20 -41 31 4 4 12 1 18 -5 17 -17 41 -15 34 3 -8 23 13 18 35 -7z m3409 6
c0 -8 -5 -12 -10 -9 -6 4 -8 11 -5 16 9 14 15 11 15 -7z m-590 -40 c0 -8 -5
-12 -10 -9 -6 4 -8 11 -5 16 9 14 15 11 15 -7z m-3492 -64 c2 -6 96 -10 263
-10 282 0 265 4 253 -59 l-6 -31 -82 -2 -81 -2 83 -3 c115 -5 104 -23 -15 -23
-173 -1 -548 -12 -552 -16 -2 -2 125 -4 282 -4 l287 0 0 -45 c0 -25 -4 -45
-10 -45 -5 0 -10 4 -10 10 0 10 -50 3 -85 -11 -12 -6 -2 -6 28 -3 39 5 53 2
82 -17 19 -13 35 -27 35 -31 0 -15 -27 -8 -44 11 -11 13 -27 18 -44 16 -15 -2
-29 -4 -32 -4 -3 -1 -3 -26 -2 -56 l4 -55 -104 -2 c-56 -1 -170 -2 -253 -4
-82 -1 -212 -3 -289 -4 -155 -3 -156 -3 -156 68 0 33 4 42 17 42 9 0 13 3 9 7
-4 4 -31 8 -59 8 l-52 0 -3 63 -3 62 -54 0 -55 0 0 60 0 60 113 -1 c194 -2
399 12 416 29 17 16 113 10 119 -8z m610 -22 c19 -19 14 -30 -8 -18 -11 6 -20
15 -20 20 0 14 14 12 28 -2z m12 -58 c0 -5 -6 -10 -14 -10 -8 0 -18 5 -21 10
-3 6 3 10 14 10 12 0 21 -4 21 -10z m0 -61 c0 -6 -7 -8 -16 -5 -9 3 -18 6 -20
6 -2 0 -4 7 -4 15 0 13 4 14 20 5 11 -6 20 -16 20 -21z m2910 -9 c0 -5 -12
-10 -27 -10 -22 0 -25 2 -13 10 20 13 40 13 40 0z m-1359 -53 c-10 -9 -11 -8
-5 6 3 10 9 15 12 12 3 -3 0 -11 -7 -18z m-3251 10 c0 -2 -10 -12 -22 -23
l-23 -19 19 23 c18 21 26 27 26 19z m3468 -42 c-6 -14 -13 -23 -15 -21 -5 5
15 46 22 46 3 0 -1 -11 -7 -25z m2593 -215 c20 -182 22 -236 10 -224 -7 6 -14
35 -16 65 -2 30 -8 74 -13 99 -15 68 -25 246 -16 272 6 18 10 8 15 -42 4 -36
13 -112 20 -170z m-1248 203 c-35 -2 -91 -2 -125 0 -35 2 -7 3 62 3 69 0 97
-1 63 -3z m-7180 -67 c-10 -13 -20 -22 -22 -20 -4 4 29 44 36 44 2 0 -4 -11
-14 -24z m257 -16 c-12 -16 -24 -30 -26 -30 -7 0 5 20 24 43 24 27 25 20 2
-13z m3680 -92 c0 -14 -24 -8 -58 12 -18 11 -30 24 -27 29 6 10 85 -29 85 -41z
m-4010 12 c-12 -16 -24 -30 -26 -30 -3 0 4 14 16 30 12 17 24 30 26 30 3 0 -4
-13 -16 -30z m1510 27 c0 -2 -12 -14 -27 -28 l-28 -24 24 28 c23 25 31 32 31
24z m-3173 -94 c-2 -16 -4 -3 -4 27 0 30 2 43 4 28 2 -16 2 -40 0 -55z m2747
61 c4 -9 4 -19 2 -21 -8 -8 -26 8 -26 23 0 19 16 18 24 -2z m-315 -39 c-12
-19 -26 -38 -32 -42 -11 -7 -5 6 25 50 27 38 31 34 7 -8z m-526 10 c-3 -9 -8
-14 -10 -11 -3 3 -2 9 2 15 9 16 15 13 8 -4z m784 -47 c-3 -7 -5 -2 -5 12 0
14 2 19 5 13 2 -7 2 -19 0 -25z m183 22 c0 -5 -4 -10 -10 -10 -5 0 -10 5 -10
10 0 6 5 10 10 10 6 0 10 -4 10 -10z m-20 -21 c0 -5 5 -7 10 -4 6 3 10 1 10
-5 0 -15 -42 -8 -48 8 -2 6 3 12 12 12 9 0 16 -5 16 -11z m2770 -59 c0 -5 -4
-10 -10 -10 -5 0 -10 5 -10 10 0 6 5 10 10 10 6 0 10 -4 10 -10z m-2620 -30
c0 -5 -7 -10 -15 -10 -8 0 -15 5 -15 10 0 6 7 10 15 10 8 0 15 -4 15 -10z
m-450 -20 c0 -5 -8 -10 -17 -10 -15 0 -16 2 -3 10 19 12 20 12 20 0z m540 0
c0 -3 -6 -12 -12 -19 -11 -10 -9 -11 6 -5 13 5 17 4 12 -4 -13 -21 -36 -13
-34 11 2 20 28 36 28 17z m4657 -16 c-9 -9 -28 6 -21 18 4 6 10 6 17 -1 6 -6
8 -13 4 -17z m-7278 -26 c1 -5 -3 -8 -9 -8 -5 0 -10 12 -9 28 0 24 1 25 9 7 5
-11 9 -23 9 -27z m-529 -19 c0 -5 -4 -9 -10 -9 -5 0 -10 7 -10 16 0 8 5 12 10
9 6 -3 10 -10 10 -16z m530 -20 c0 -6 -4 -7 -10 -4 -5 3 -10 11 -10 16 0 6 5
7 10 4 6 -3 10 -11 10 -16z m5390 11 c0 -5 -4 -10 -10 -10 -5 0 -10 5 -10 10
0 6 5 10 10 10 6 0 10 -4 10 -10z m-3540 -40 c0 -11 -4 -20 -10 -20 -5 0 -10
9 -10 20 0 11 5 20 10 20 6 0 10 -9 10 -20z m1010 -11 c0 -10 -7 -19 -15 -19
-16 0 -19 9 -9 34 8 20 24 11 24 -15z m2630 21 c0 -5 -7 -10 -16 -10 -8 0 -12
5 -9 10 3 6 10 10 16 10 5 0 9 -4 9 -10z m-3670 -31 c0 -11 -4 -17 -10 -14 -5
3 -10 15 -10 26 0 11 5 17 10 14 6 -3 10 -15 10 -26z m990 10 c0 -5 -7 -9 -15
-9 -15 0 -20 12 -9 23 8 8 24 -1 24 -14z m4180 -9 c0 -5 -4 -10 -10 -10 -5 0
-10 5 -10 10 0 6 5 10 10 10 6 0 10 -4 10 -10z m-7431 -27 c-1 -16 -4 -41 -8
-58 -6 -27 -8 -28 -17 -12 -8 13 -8 31 0 58 12 45 27 52 25 12z m631 23 c0 -3
-4 -8 -10 -11 -5 -3 -10 -1 -10 4 0 6 5 11 10 11 6 0 10 -2 10 -4z m3920 -32
c0 -8 -4 -14 -10 -14 -5 0 -10 9 -10 21 0 11 5 17 10 14 6 -3 10 -13 10 -21z
m5320 5 c0 -6 -4 -7 -10 -4 -5 3 -10 11 -10 16 0 6 5 7 10 4 6 -3 10 -11 10
-16z m-9225 1 c-3 -5 -11 -10 -16 -10 -6 0 -7 5 -4 10 3 6 11 10 16 10 6 0 7
-4 4 -10z m5385 -10 c0 -5 -2 -10 -4 -10 -3 0 -8 5 -11 10 -3 6 -1 10 4 10 6
0 11 -4 11 -10z m-2500 -15 c0 -8 5 -15 10 -15 6 0 10 -7 10 -15 0 -18 -5 -18
-30 -5 -12 6 -16 17 -13 30 6 23 23 27 23 5z m2630 5 c0 -5 -4 -10 -10 -10 -5
0 -10 5 -10 10 0 6 5 10 10 10 6 0 10 -4 10 -10z m-1870 -30 c0 -11 -4 -20
-10 -20 -5 0 -10 9 -10 20 0 11 5 20 10 20 6 0 10 -9 10 -20z m1911 7 c-1 -12
-15 -9 -19 4 -3 6 1 10 8 8 6 -3 11 -8 11 -12z m-5991 -6 c0 -14 -18 -23 -30
-16 -6 4 -8 11 -5 16 8 12 35 12 35 0z m1888 -14 c2 -10 -3 -17 -12 -17 -9 0
-16 5 -16 11 0 5 6 7 13 3 7 -5 6 0 -3 11 -13 16 -13 18 0 13 8 -2 16 -12 18
-21z m-1248 3 c0 -5 -4 -10 -10 -10 -5 0 -10 5 -10 10 0 6 5 10 10 10 6 0 10
-4 10 -10z m6280 0 c0 -5 -4 -10 -10 -10 -5 0 -10 5 -10 10 0 6 5 10 10 10 6
0 10 -4 10 -10z m2845 0 c3 -5 1 -10 -4 -10 -6 0 -11 5 -11 10 0 6 2 10 4 10
3 0 8 -4 11 -10z m-9731 -15 c-4 -8 -8 -15 -10 -15 -2 0 -4 7 -4 15 0 8 4 15
10 15 5 0 7 -7 4 -15z m3522 -22 c-11 -11 -19 6 -11 24 8 17 8 17 12 0 3 -10
2 -21 -1 -24z m3274 21 c0 -8 -4 -12 -10 -9 -5 3 -10 10 -10 16 0 5 5 9 10 9
6 0 10 -7 10 -16z m-5102 -6 c-3 -7 -11 -13 -18 -13 -7 0 -15 6 -17 13 -3 7 4
12 17 12 13 0 20 -5 18 -12z m4542 2 c0 -5 -2 -10 -4 -10 -3 0 -8 5 -11 10 -3
6 -1 10 4 10 6 0 11 -4 11 -10z m3390 0 c0 -5 -5 -10 -11 -10 -5 0 -7 5 -4 10
3 6 8 10 11 10 2 0 4 -4 4 -10z m-9027 -13 c4 3 7 1 7 -6 0 -17 -32 -10 -38 9
-4 12 -3 13 10 3 8 -7 18 -10 21 -6z m3187 -8 c0 -5 -4 -9 -10 -9 -5 0 -10 7
-10 16 0 8 5 12 10 9 6 -3 10 -10 10 -16z m5950 11 c0 -5 -5 -10 -11 -10 -5 0
-7 5 -4 10 3 6 8 10 11 10 2 0 4 -4 4 -10z m-10126 -16 c7 -18 0 -34 -16 -34
-5 0 -8 7 -4 15 3 8 1 15 -4 15 -6 0 -10 -5 -10 -12 0 -6 -3 -9 -6 -5 -10 10
4 37 20 37 7 0 17 -7 20 -16z m126 6 c0 -5 -4 -10 -10 -10 -5 0 -10 5 -10 10
0 6 5 10 10 10 6 0 10 -4 10 -10z m6755 0 c3 -5 1 -10 -4 -10 -6 0 -11 5 -11
10 0 6 2 10 4 10 3 0 8 -4 11 -10z m105 -4 c0 -11 -19 -15 -25 -6 -3 5 1 10 9
10 9 0 16 -2 16 -4z m-6850 -52 c0 -24 -4 -34 -12 -32 -24 8 -22 68 2 68 5 0
10 -16 10 -36z m1066 10 c-5 -17 -3 -23 4 -19 11 7 14 -8 3 -18 -10 -11 -34
14 -26 27 4 6 8 14 9 19 3 15 4 17 10 17 3 0 3 -12 0 -26z m810 -10 c-4 -12
-10 -14 -17 -7 -5 5 -7 17 -3 27 4 12 10 14 17 7 5 -5 7 -17 3 -27z m966 19
c9 -35 -13 -60 -26 -28 -6 17 2 45 14 45 4 0 10 -8 12 -17z m-1292 -14 c0 -5
-7 -9 -15 -9 -15 0 -20 12 -9 23 8 8 24 -1 24 -14z m4260 11 c0 -5 7 -10 15
-10 15 0 20 -12 9 -23 -9 -9 -44 16 -44 30 0 7 5 13 10 13 6 0 10 -4 10 -10z
m-3250 -31 c0 -10 -7 -19 -15 -19 -16 0 -19 9 -9 34 8 20 24 11 24 -15z m7205
10 c4 -6 12 -8 19 -6 6 3 12 -7 13 -24 2 -20 -3 -29 -12 -29 -8 0 -15 9 -15
19 0 11 -4 22 -9 26 -12 7 -26 -79 -15 -97 6 -10 4 -10 -9 1 -19 15 -23 46 -7
56 6 4 4 12 -5 22 -12 12 -13 18 -4 29 14 17 35 18 44 3z m-7975 -18 c0 -4 -3
-11 -7 -14 -8 -9 -34 13 -28 24 6 9 35 1 35 -10z m5670 4 c0 -8 -4 -15 -10
-15 -5 0 -10 7 -10 15 0 8 5 15 10 15 6 0 10 -7 10 -15z m-6190 -3 c0 -16 -28
-47 -36 -39 -4 4 -2 7 4 7 7 0 12 9 12 20 0 11 5 20 10 20 6 0 10 -4 10 -8z
m393 -25 c-4 -18 -3 -19 7 -7 8 10 10 11 8 2 -6 -23 -23 -14 -26 14 -2 15 1
24 6 20 6 -3 8 -16 5 -29z m6211 11 c-6 -20 -5 -21 10 -9 9 7 16 9 16 3 0 -16
-27 -34 -35 -22 -6 10 2 50 11 50 3 0 2 -10 -2 -22z m376 18 c0 -2 -8 -10 -17
-17 -16 -13 -17 -12 -4 4 13 16 21 21 21 13z m-5140 -26 c0 -11 -7 -20 -15
-20 -17 0 -18 2 -9 24 9 23 24 20 24 -4z m4600 1 c0 -25 -18 -37 -33 -22 -8 8
-6 11 6 11 9 0 17 5 17 11 0 5 -5 7 -12 3 -7 -4 -8 -3 -4 4 11 18 26 14 26 -7z
m470 -20 c0 -13 -27 -15 -34 -2 -4 5 -3 16 0 25 5 13 8 13 20 1 8 -7 14 -18
14 -24z m-6702 5 c3 -11 -1 -17 -9 -14 -7 2 -13 12 -15 22 -3 23 20 15 24 -8z
m-1488 9 c0 -2 -5 -15 -11 -29 -13 -28 -45 -47 -35 -20 3 8 6 24 6 35 0 12 7
19 20 19 11 0 20 -2 20 -5z m7360 -11 c0 -8 -4 -12 -10 -9 -5 3 -10 10 -10 16
0 5 5 9 10 9 6 0 10 -7 10 -16z m-5056 -36 c-4 -6 -10 -5 -15 3 -7 11 -9 11
-9 1 0 -7 -4 -11 -9 -8 -5 3 -7 15 -4 26 5 20 7 20 24 4 10 -9 16 -21 13 -26z
m-2233 22 c24 -13 25 -40 2 -39 -11 0 -13 3 -5 6 8 3 5 11 -10 24 -25 20 -18
25 13 9z m5859 0 c0 -5 -4 -10 -10 -10 -5 0 -10 5 -10 10 0 6 5 10 10 10 6 0
10 -4 10 -10z m187 -22 c-3 -8 -6 -5 -6 6 -1 11 2 17 5 13 3 -3 4 -12 1 -19z
m3693 -12 c0 -22 -6 -36 -16 -40 -24 -9 -30 2 -16 24 16 27 15 41 -3 34 -8 -4
-15 -1 -15 5 0 6 11 11 25 11 22 0 25 -4 25 -34z m-5459 1 c-1 -12 -15 -9 -19
4 -3 6 1 10 8 8 6 -3 11 -8 11 -12z m5536 -19 c-3 -7 -5 -2 -5 12 0 14 2 19 5
13 2 -7 2 -19 0 -25z m-9854 8 c4 -10 1 -13 -9 -9 -15 6 -19 23 -5 23 5 0 11
-7 14 -14z m7132 5 c3 -5 1 -12 -5 -16 -5 -3 -10 1 -10 9 0 18 6 21 15 7z
m2315 -1 c0 -5 -4 -10 -10 -10 -5 0 -10 5 -10 10 0 6 5 10 10 10 6 0 10 -4 10
-10z m-9633 -57 c-3 -10 -5 -2 -5 17 0 19 2 27 5 18 2 -10 2 -26 0 -35z m6601
29 c2 -7 -3 -12 -12 -12 -9 0 -16 7 -16 16 0 17 22 14 28 -4z m620 -1 c3 -8
-1 -12 -9 -9 -7 2 -15 10 -17 17 -3 8 1 12 9 9 7 -2 15 -10 17 -17z m2332 9
c0 -5 -7 -10 -16 -10 -8 0 -12 5 -9 10 3 6 10 10 16 10 5 0 9 -4 9 -10z m343
-15 c-7 -21 -13 -19 -13 6 0 11 4 18 10 14 5 -3 7 -12 3 -20z m-5650 0 c19
-12 22 -23 21 -67 -1 -44 -4 -52 -17 -50 -22 4 -22 -24 1 -38 15 -10 15 -10
-3 -6 -11 3 -37 8 -58 12 -31 5 -38 10 -35 27 2 11 17 27 35 36 30 15 52 51
32 51 -5 0 -8 3 -8 8 3 19 -2 25 -11 12 -8 -13 -10 -13 -10 2 0 13 8 22 28 27
1 1 13 -6 25 -14z m-3258 -5 c11 -17 -5 -32 -21 -19 -7 6 -11 15 -8 20 7 12
21 11 29 -1z m1211 -17 c-3 -8 -6 -17 -6 -19 0 -3 -4 -2 -10 1 -17 11 -12 45
6 38 8 -3 13 -12 10 -20z m4498 19 c2 -4 0 -14 -5 -22 -8 -13 -10 -13 -18 0
-10 15 -6 30 9 30 5 0 11 -4 14 -8z m-304 -11 c-23 -14 -405 -60 -590 -71 -91
-6 -210 -15 -265 -20 -55 -5 -113 -9 -128 -10 -18 0 -26 -4 -21 -11 4 -7 21
-9 47 -5 65 11 245 16 217 6 -25 -8 -25 -8 5 -10 l30 -2 -30 -8 c-28 -7 -28
-8 12 -9 23 0 50 -4 60 -7 15 -5 15 -4 3 5 -12 9 -10 11 13 11 30 0 36 -20 12
-40 -15 -12 -70 -6 -92 12 -6 5 -24 8 -40 5 -27 -4 -27 -4 5 -6 17 0 32 -5 32
-11 0 -5 -13 -7 -32 -3 -22 4 -29 3 -24 -5 5 -8 -2 -10 -24 -6 -19 4 -30 2
-30 -5 0 -6 8 -10 18 -9 9 1 44 0 77 -2 l60 -3 -75 -8 c-162 -18 -188 -19
-194 -3 -3 7 -17 14 -31 14 -20 0 -25 5 -25 24 0 38 -18 76 -35 76 -17 0 -35
-38 -35 -76 0 -17 -5 -24 -20 -24 -12 0 -25 -10 -32 -25 -10 -22 -17 -25 -67
-25 -31 0 -96 5 -146 11 -49 6 -130 14 -180 18 -73 5 -89 9 -86 21 2 8 6 29 9
45 2 17 12 38 21 48 15 17 14 20 -3 33 -11 7 -17 16 -15 18 3 3 90 -4 194 -14
154 -16 212 -18 305 -10 134 11 608 48 725 56 61 4 289 24 380 32 6 1 3 -3 -5
-7z m502 -33 c-13 -13 -26 8 -17 30 6 16 7 16 17 -1 7 -13 7 -22 0 -29z m1688
22 c0 -11 -7 -20 -15 -20 -15 0 -21 21 -8 33 12 13 23 7 23 -13z m-1570 -5 c0
-8 -4 -15 -10 -15 -5 0 -10 7 -10 15 0 8 5 15 10 15 6 0 10 -7 10 -15z m2925
-5 c-10 -11 -22 -17 -28 -13 -6 4 -3 12 8 20 28 20 41 16 20 -7z m104 -47 c-1
-47 -3 -59 -8 -38 -6 29 -3 105 5 105 2 0 3 -30 3 -67z m-5461 41 c75 -8 141
-20 146 -25 6 -5 3 -14 -8 -22 -18 -13 -18 -15 -2 -39 9 -14 14 -33 10 -42 -3
-9 -1 -23 6 -31 7 -9 11 -18 8 -20 -3 -3 -51 1 -106 10 -56 8 -117 15 -134 16
-18 0 -27 3 -20 6 25 10 33 41 21 88 -6 25 -15 45 -19 45 -17 0 -19 -15 -4
-31 9 -10 14 -26 12 -35 -3 -18 -53 -53 -61 -44 -3 3 -7 35 -9 73 -3 51 -1 67
10 67 7 0 75 -7 150 -16z m-471 -31 c-3 -10 -5 -4 -5 12 0 17 2 24 5 18 2 -7
2 -21 0 -30z m-1287 7 c0 -19 -11 -26 -23 -14 -8 8 3 34 14 34 5 0 9 -9 9 -20z
m7500 4 c0 -11 -5 -14 -16 -10 -9 3 -20 6 -25 6 -6 0 -7 5 -4 10 10 16 45 12
45 -6z m-7163 -10 c5 -17 -15 -37 -31 -31 -14 5 -15 11 -6 27 11 21 31 23 37
4z m5475 7 c8 11 9 11 6 1 -4 -16 -22 -18 -24 -2 -2 7 -1 6 3 -1 4 -8 8 -7 15
2z m1497 -58 c-1 -56 -2 -63 -10 -38 -8 26 -2 105 7 105 2 0 4 -30 3 -67z
m-10099 41 c0 -8 -4 -12 -10 -9 -5 3 -10 10 -10 16 0 5 5 9 10 9 6 0 10 -7 10
-16z m6347 -16 c-3 -7 -5 -2 -5 12 0 14 2 19 5 13 2 -7 2 -19 0 -25z m3553 12
c0 -5 -4 -10 -10 -10 -5 0 -10 5 -10 10 0 6 5 10 10 10 6 0 10 -4 10 -10z
m-1983 -16 c7 -20 -11 -38 -32 -30 -13 4 -14 10 -5 26 13 24 28 26 37 4z m415
-26 c-16 -16 -37 4 -28 28 6 16 8 16 23 1 13 -13 15 -19 5 -29z m-7679 19 c3
-8 1 -20 -4 -28 -8 -12 -10 -12 -18 0 -10 15 -4 41 9 41 4 0 10 -6 13 -13z
m1257 -17 c0 -22 -16 -35 -25 -20 -9 14 4 52 16 45 5 -4 9 -15 9 -25z m3894
20 c-15 -15 -74 -24 -74 -12 0 6 17 13 38 15 20 2 39 4 42 5 2 1 0 -2 -6 -8z
m2212 -1 c3 -6 -1 -18 -10 -27 -15 -15 -18 -15 -26 -2 -5 9 -5 19 2 27 13 16
25 17 34 2z m214 -34 c-19 -23 -44 0 -29 27 10 18 12 19 27 5 13 -13 13 -19 2
-32z m1687 23 c-3 -8 -6 -5 -6 6 -1 11 2 17 5 13 3 -3 4 -12 1 -19z m-9007 2
c0 -5 -4 -10 -10 -10 -5 0 -10 5 -10 10 0 6 5 10 10 10 6 0 10 -4 10 -10z
m4790 0 c-34 -11 -60 -11 -35 0 11 5 29 8 40 8 16 0 15 -2 -5 -8z m3123 -15
c-3 -8 -9 -15 -14 -15 -10 0 -12 24 -3 33 11 11 24 -3 17 -18z m897 4 c0 -11
-4 -17 -10 -14 -5 3 -10 13 -10 21 0 8 5 14 10 14 6 0 10 -9 10 -21z m-2004
-28 c-10 -16 -23 -14 -30 5 -9 25 4 38 21 21 9 -8 12 -20 9 -26z m-6506 19 c0
-5 -4 -10 -10 -10 -5 0 -10 5 -10 10 0 6 5 10 10 10 6 0 10 -4 10 -10z m188
-23 c2 -15 -1 -27 -7 -27 -14 0 -33 38 -26 51 11 17 30 4 33 -24z m-478 9 c0
-21 -21 -31 -31 -15 -14 22 -11 29 11 29 11 0 20 -6 20 -14z m1584 -13 c9 -22
-10 -41 -25 -26 -13 13 -5 43 10 43 5 0 12 -8 15 -17z m5109 2 c8 -19 -13 -31
-24 -14 -13 20 -11 29 5 29 8 0 16 -7 19 -15z m900 1 c8 -20 -20 -43 -35 -28
-14 14 -3 42 16 42 7 0 16 -6 19 -14z m-1119 -11 c4 -10 -1 -15 -14 -15 -11 0
-20 7 -20 15 0 8 6 15 14 15 8 0 16 -7 20 -15z m2323 -32 c-3 -10 -5 -2 -5 17
0 19 2 27 5 18 2 -10 2 -26 0 -35z m-8559 10 c-2 -31 -19 -48 -29 -31 -6 10
17 58 27 58 2 0 3 -12 2 -27z m5527 17 c6 -10 3 -11 -55 -15 -19 -2 -70 -8
-113 -14 -82 -12 -204 -15 -195 -5 3 3 82 13 174 23 93 10 172 19 176 20 4 0
10 -3 13 -9z m375 -5 c0 -8 -4 -15 -10 -15 -5 0 -10 7 -10 15 0 8 5 15 10 15
6 0 10 -7 10 -15z m3358 -7 c-5 -32 -28 -35 -28 -4 0 17 5 26 16 26 10 0 14
-7 12 -22z m-8785 -25 c-3 -7 -9 -13 -13 -13 -16 0 -22 21 -9 36 14 17 31 0
22 -23z m5104 31 c-3 -3 -12 -4 -19 -1 -8 3 -5 6 6 6 11 1 17 -2 13 -5z m556
-9 c4 -8 2 -17 -3 -20 -6 -4 -10 3 -10 14 0 25 6 27 13 6z m-6948 -43 c-11
-11 -25 15 -19 33 7 17 8 16 16 -5 5 -13 6 -25 3 -28z m-465 28 c0 -5 -4 -10
-10 -10 -5 0 -10 5 -10 10 0 6 5 10 10 10 6 0 10 -4 10 -10z m8726 -5 c3 -8 3
-19 -1 -25 -10 -16 -35 7 -28 26 7 18 22 18 29 -1z m-2883 -2 c-7 -2 -21 -2
-30 0 -10 3 -4 5 12 5 17 0 24 -2 18 -5z m4001 -28 c3 -8 1 -15 -4 -15 -6 0
-10 7 -10 15 0 8 2 15 4 15 2 0 6 -7 10 -15z m-9834 -51 c0 -5 -6 -18 -12 -27
-11 -15 -13 -11 -13 27 0 37 1 41 12 27 7 -9 13 -21 13 -27z m2327 30 c8 -20
-8 -36 -26 -25 -15 10 -8 41 9 41 6 0 13 -7 17 -16z m2021 -6 c2 -11 -3 -18
-13 -18 -15 0 -15 -2 -1 -15 8 -9 13 -22 10 -29 -5 -14 -81 -53 -88 -45 -2 2
-6 32 -10 67 l-7 63 53 -3 c41 -2 54 -7 56 -20z m365 6 l107 -6 0 -79 c0 -43
-3 -79 -7 -79 -5 0 -79 30 -165 67 -111 47 -158 72 -158 84 0 26 11 30 65 25
27 -3 98 -8 158 -12z m4520 1 c-3 -9 -8 -14 -10 -11 -3 3 -2 9 2 15 9 16 15
13 8 -4z m794 -17 c-3 -8 -6 -5 -6 6 -1 11 2 17 5 13 3 -3 4 -12 1 -19z
m-3651 -10 c-3 -13 -6 -51 -6 -84 l0 -61 -165 -1 -166 -1 -11 24 c-14 32 -25
32 -40 0 -10 -23 -16 -25 -85 -25 l-73 0 0 53 -1 52 -15 -28 c-9 -16 -13 -35
-10 -42 3 -9 0 -12 -10 -8 -7 3 -14 1 -14 -5 0 -5 -9 -12 -20 -15 -11 -3 -20
-1 -20 5 0 6 -11 7 -27 3 -16 -4 -36 -8 -45 -10 -9 -2 -26 -8 -37 -14 -26 -15
-77 -14 -101 1 -16 10 -22 10 -32 -1 -11 -12 -10 -13 5 -8 9 4 17 2 17 -3 0
-6 -9 -10 -19 -10 -11 0 -27 -3 -36 -7 -15 -5 -16 -3 -7 14 6 11 9 29 6 40 -3
11 1 25 10 32 20 16 21 41 2 41 -13 0 -20 50 -7 50 11 0 166 12 266 19 55 5
223 9 374 10 l273 1 -6 -22z m-1306 -13 c106 -12 169 -14 233 -8 48 5 87 6 87
2 0 -4 3 -14 6 -23 4 -11 1 -16 -10 -16 -19 0 -20 -19 -2 -43 7 -9 11 -28 9
-41 -3 -13 0 -27 6 -30 20 -13 11 -23 -16 -19 -16 2 -64 0 -108 -5 -58 -6
-108 -5 -180 5 -55 7 -129 16 -164 18 -35 3 -67 8 -72 11 -5 3 -9 44 -9 91 l0
86 38 -6 c20 -3 102 -13 182 -22z m4700 -22 c0 -12 -2 -12 -15 1 -8 8 -15 20
-15 27 0 9 4 8 15 -1 8 -7 15 -19 15 -27z m-290 11 c0 -8 -5 -12 -10 -9 -6 4
-8 11 -5 16 9 14 15 11 15 -7z m-7434 -8 c22 -22 18 -39 -6 -26 -11 6 -20 17
-20 25 0 19 8 19 26 1z m6881 -2 c8 -21 -13 -42 -28 -27 -13 13 -5 43 11 43 6
0 13 -7 17 -16z m1443 7 c0 -6 -4 -13 -10 -16 -5 -3 -10 1 -10 9 0 9 5 16 10
16 6 0 10 -4 10 -9z m-8657 -26 c-4 -15 -36 -12 -41 3 -3 9 3 13 19 10 13 -1
23 -7 22 -13z m8487 -6 c-7 -11 -14 -19 -16 -16 -7 7 7 37 17 37 6 0 5 -9 -1
-21z m-5585 -40 c55 -27 89 -46 75 -42 -14 3 -65 7 -115 7 l-90 1 -3 43 c-4
55 5 54 133 -9z m2358 34 c-7 -2 -19 -2 -25 0 -7 3 -2 5 12 5 14 0 19 -2 13
-5z m2040 0 c8 -14 -12 -53 -26 -53 -21 0 -38 25 -31 44 6 16 49 23 57 9z
m-2178 -13 c-28 -12 -47 -12 -40 0 3 6 18 10 33 9 24 0 25 -1 7 -9z m82 4 c-3
-3 -12 -4 -19 -1 -8 3 -5 6 6 6 11 1 17 -2 13 -5z m2853 -2 c0 -10 -21 -32
-31 -32 -4 0 -10 7 -13 16 -4 12 -2 15 9 10 8 -3 15 -1 15 4 0 6 5 10 10 10 6
0 10 -4 10 -8z m-3015 -12 c-11 -5 -54 -8 -95 -8 l-75 1 60 6 c108 11 132 11
110 1z m-5315 -15 c0 -8 -9 -15 -20 -15 -11 0 -20 7 -20 15 0 8 9 15 20 15 11
0 20 -7 20 -15z m2107 9 c-3 -3 -12 -4 -19 -1 -8 3 -5 6 6 6 11 1 17 -2 13 -5z
m-2614 -23 c4 -18 -10 -31 -34 -31 -10 0 -12 33 -2 43 13 13 31 7 36 -12z
m3415 2 c-2 -14 -14 -19 -48 -20 l-45 -3 35 20 c44 24 62 25 58 3z m4907 -13
c3 -5 -3 -10 -15 -10 -12 0 -18 5 -15 10 3 6 10 10 15 10 5 0 12 -4 15 -10z
m-4910 -111 l0 -84 -42 -6 c-38 -5 -40 -4 -33 15 4 12 4 50 -1 86 -4 35 -6 67
-4 70 2 3 20 4 42 4 l38 -1 0 -84z m221 80 c33 -1 102 -9 154 -18 l95 -16 -1
-45 c-2 -134 -1 -130 -31 -120 -47 15 -185 33 -245 31 l-58 -2 0 84 c0 81 5
102 20 92 4 -3 34 -6 66 -6z m-3390 -26 c-10 -10 -19 5 -10 18 6 11 8 11 12 0
2 -7 1 -15 -2 -18z m2132 5 c-2 -17 -10 -23 -28 -23 -18 0 -26 6 -28 23 -3 19
1 22 28 22 27 0 31 -3 28 -22z m6250 10 c-6 -18 -28 -21 -28 -4 0 9 7 16 16
16 9 0 14 -5 12 -12z m-3128 -8 c12 0 11 -4 -4 -15 -19 -14 -18 -15 16 -15 28
0 37 5 41 21 5 17 12 20 43 17 36 -3 62 -28 29 -28 -13 0 -15 -11 -13 -64 1
-36 0 -67 -2 -70 -8 -7 -452 -9 -475 -1 -15 4 -20 14 -19 38 1 48 3 53 13 38
15 -24 43 -5 39 26 -2 22 -9 29 -30 31 -26 3 -35 12 -24 23 3 3 317 2 386 -1z
m2910 6 c0 -3 -4 -8 -10 -11 -5 -3 -10 -1 -10 4 0 6 5 11 10 11 6 0 10 -2 10
-4z m-3360 -16 c0 -5 -11 -10 -24 -10 -27 0 -41 -26 -30 -54 7 -18 34 -22 34
-5 0 5 5 7 10 4 6 -3 10 -21 10 -39 0 -37 -28 -57 -70 -51 -14 2 -31 4 -37 4
-7 1 -12 4 -12 9 1 4 1 18 0 32 -1 17 -4 21 -10 12 -9 -15 -112 -13 -123 3 -5
6 -8 5 -8 -2 0 -7 -12 -13 -26 -13 -16 0 -23 -4 -18 -12 4 -7 3 -8 -5 -4 -6 4
-9 12 -6 17 4 5 -4 9 -15 9 -15 0 -20 -5 -17 -14 3 -8 -1 -17 -9 -20 -25 -10
-34 -7 -34 9 0 23 -26 18 -44 -10 -11 -17 -26 -25 -46 -25 -17 0 -30 -4 -30
-10 0 -13 31 -12 175 5 66 8 136 14 155 14 l35 -1 -42 -8 c-23 -5 -95 -14
-160 -20 -65 -7 -133 -13 -150 -15 l-33 -3 0 87 0 88 98 7 c273 18 312 19 312
7 0 -6 -12 -12 -27 -12 l-28 -1 30 -7 c25 -6 31 -3 39 16 8 20 17 23 58 23 26
0 48 -4 48 -10z m-5535 -41 c9 -28 -8 -45 -25 -25 -13 17 -7 46 9 46 5 0 13
-9 16 -21z m4558 -38 c184 -83 287 -132 287 -138 0 -3 -13 -3 -28 0 -16 3 -45
2 -65 -2 -25 -6 -79 -2 -178 15 -78 13 -145 21 -149 19 -13 -8 -17 16 -18 93
0 42 4 72 10 72 5 0 69 -27 141 -59z m80 38 c66 -10 153 -8 280 8 l47 6 0 -92
c0 -63 -4 -91 -12 -91 -13 0 -243 96 -273 114 -11 7 -46 23 -78 35 -31 13 -60
28 -64 34 -4 7 0 8 11 4 10 -4 50 -12 89 -18z m4747 -8 c0 -6 -4 -13 -10 -16
-5 -3 -10 1 -10 9 0 9 5 16 10 16 6 0 10 -4 10 -9z m460 -21 c0 -25 -29 -38
-41 -19 -15 25 -10 39 16 39 18 0 25 -5 25 -20z m-9813 -22 c-3 -7 -5 -2 -5
12 0 14 2 19 5 13 2 -7 2 -19 0 -25z m2996 15 c-7 -2 -19 -2 -25 0 -7 3 -2 5
12 5 14 0 19 -2 13 -5z m37 -18 c0 -14 -2 -25 -4 -25 -2 0 -6 11 -8 25 -3 14
-1 25 3 25 5 0 9 -11 9 -25z m6410 15 c0 -5 -4 -10 -10 -10 -5 0 -10 5 -10 10
0 6 5 10 10 10 6 0 10 -4 10 -10z m-9928 -32 c-9 -9 -9 -15 0 -27 10 -13 8
-13 -6 1 -18 16 -15 38 7 38 8 0 8 -3 -1 -12z m3575 -35 c-3 -10 -5 -2 -5 17
0 19 2 27 5 18 2 -10 2 -26 0 -35z m6572 28 c17 -11 7 -45 -12 -39 -13 5 -23
48 -10 48 4 0 14 -4 22 -9z m-9819 -22 c0 -5 -4 -9 -10 -9 -5 0 -10 7 -10 16
0 8 5 12 10 9 6 -3 10 -10 10 -16z m10290 6 c0 -1 -6 -15 -14 -30 l-15 -28 -6
26 c-8 31 0 48 20 40 8 -3 15 -6 15 -8z m-10560 -5 c0 -5 -4 -10 -10 -10 -5 0
-10 5 -10 10 0 6 5 10 10 10 6 0 10 -4 10 -10z m221 1 c-12 -8 -12 -12 -2 -25
8 -10 9 -16 3 -16 -6 0 -14 5 -17 10 -9 15 2 40 17 40 10 0 9 -3 -1 -9z m764
-1 c3 -5 1 -10 -4 -10 -6 0 -11 5 -11 10 0 6 2 10 4 10 3 0 8 -4 11 -10z
m2035 -54 c47 -15 125 -32 174 -38 85 -11 89 -11 104 9 12 15 34 23 72 28 30
4 63 11 73 17 13 7 17 5 17 -11 0 -17 -5 -20 -27 -15 -49 8 -117 -9 -128 -33
-18 -43 -47 -45 -173 -17 -64 14 -146 37 -182 51 -36 13 -73 27 -82 30 -10 3
-18 11 -18 19 0 11 7 11 43 -1 23 -7 80 -25 127 -39z m7470 29 c0 -8 -4 -15
-10 -15 -5 0 -10 7 -10 15 0 8 5 15 10 15 6 0 10 -7 10 -15z m-6941 -19 c10
-11 8 -16 -8 -21 -25 -8 -41 1 -41 21 0 18 34 18 49 0z m611 4 c0 -5 -5 -10
-11 -10 -5 0 -7 5 -4 10 3 6 8 10 11 10 2 0 4 -4 4 -10z m-250 -16 c0 -14 -3
-14 -15 -4 -8 7 -15 14 -15 16 0 2 7 4 15 4 8 0 15 -7 15 -16z m130 3 c0 -8
-13 -38 -30 -68 -16 -30 -30 -64 -30 -76 0 -13 -3 -23 -7 -23 -5 0 -9 -20 -9
-44 -2 -59 -13 -116 -23 -116 -16 0 -21 44 -19 165 0 71 3 104 7 80 9 -59 33
-52 70 19 17 32 31 60 31 61 0 2 -15 6 -32 8 -32 4 -32 4 5 5 25 1 37 -2 37
-11z m78 6 c-9 -2 -19 -16 -21 -31 -4 -24 -4 -24 -6 6 -1 27 2 32 22 31 15 -1
17 -3 5 -6z m5562 -3 c0 -5 -4 -10 -10 -10 -5 0 -10 5 -10 10 0 6 5 10 10 10
6 0 10 -4 10 -10z m-5393 -92 c-2 -18 -4 -4 -4 32 0 36 2 50 4 33 2 -18 2 -48
0 -65z m-4297 55 c0 -21 -3 -24 -9 -14 -5 8 -7 20 -4 28 8 21 13 15 13 -14z
m2650 18 c0 -5 -7 -12 -16 -15 -22 -9 -24 -8 -24 9 0 8 9 15 20 15 11 0 20 -4
20 -9z m10 -36 c-15 -18 -40 -20 -40 -4 0 6 7 8 16 5 11 -4 18 1 22 16 3 12 7
17 10 10 2 -7 -2 -19 -8 -27z m295 15 c3 -5 1 -10 -4 -10 -6 0 -11 5 -11 10 0
6 2 10 4 10 3 0 8 -4 11 -10z m-3085 -10 c0 -5 -7 -10 -15 -10 -8 0 -15 5 -15
10 0 6 7 10 15 10 8 0 15 -4 15 -10z m3205 -16 c193 -37 185 -34 185 -66 0
-26 -7 -32 -56 -55 -34 -15 -59 -22 -63 -16 -3 6 -19 13 -35 17 -22 5 -27 11
-23 26 3 11 1 20 -4 20 -5 0 -8 3 -8 8 4 23 -3 42 -15 42 -10 0 -16 -13 -19
-37 -3 -35 -4 -34 -5 10 -1 26 -4 47 -6 47 -2 0 -11 3 -20 6 -11 4 -16 0 -17
-12 0 -18 -1 -17 -9 1 -13 31 -12 38 8 30 9 -4 49 -13 87 -21z m968 -216 c-14
-15 -14 -19 -3 -16 12 2 16 -10 18 -56 2 -46 -2 -70 -21 -110 -26 -55 -35 -98
-39 -189 -2 -41 -6 -56 -15 -52 -7 2 -13 0 -13 -5 0 -6 7 -10 15 -10 10 0 15
-10 15 -32 0 -17 2 -29 5 -26 3 2 7 52 9 110 4 99 21 188 36 188 9 0 5 -378
-4 -387 -3 -3 -6 2 -6 13 -1 10 -7 30 -15 44 l-14 25 -1 -23 c0 -13 5 -33 11
-44 8 -15 8 -23 -2 -32 -9 -8 -11 -7 -6 7 4 9 2 17 -3 17 -6 0 -10 7 -10 15 0
19 -37 39 -73 40 -18 0 -26 -4 -22 -12 7 -19 -6 -16 -20 4 -11 15 -15 15 -29
4 -15 -13 -15 -15 5 -29 l21 -14 -28 -19 c-15 -10 -28 -27 -29 -37 -1 -16 4
-19 32 -17 32 3 45 -8 21 -18 -7 -3 -1 -6 14 -6 15 -1 30 4 33 9 3 6 1 10 -6
10 -7 0 -4 6 7 14 10 8 21 10 22 5 6 -15 21 -10 32 11 8 15 7 26 -6 45 -15 23
-15 25 0 19 18 -7 31 -46 22 -69 -3 -9 0 -15 8 -15 8 0 17 8 20 17 6 15 8 15
16 3 13 -20 12 -33 -1 -24 -6 3 -5 -4 3 -17 18 -30 13 -153 -5 -143 -8 5 -7 2
1 -7 6 -7 12 -27 11 -44 0 -16 -3 -24 -6 -17 -2 6 -11 12 -19 12 -9 0 -12 -5
-8 -11 4 -8 -1 -9 -17 -3 -13 4 -30 7 -37 7 -10 0 -12 9 -8 31 5 24 4 28 -6
18 -14 -14 -38 2 -38 24 0 8 -4 14 -10 14 -5 0 -10 -6 -10 -12 0 -10 -2 -10
-9 0 -7 11 -9 11 -14 -2 -4 -9 -18 -16 -34 -16 l-28 -1 29 -12 c40 -17 42 -42
5 -45 -22 -2 -29 2 -29 16 0 10 -5 23 -11 29 -6 6 -9 26 -7 44 3 31 6 34 36
34 27 0 32 3 30 20 -2 16 -9 19 -32 17 l-29 -4 7 64 c4 36 13 68 21 74 8 6 13
13 10 16 -2 2 0 21 6 41 8 32 14 37 38 37 16 0 39 8 51 18 20 16 22 27 24 172
2 172 16 241 49 259 l22 11 -22 -6 c-26 -6 -26 -3 -13 66 21 112 25 124 42
114 6 -4 8 -2 4 4 -3 6 0 23 6 39 12 25 13 17 16 -76 2 -87 0 -107 -15 -123z
m71 176 c-6 -31 -4 -34 17 -35 13 0 58 -2 99 -3 l75 -3 -2 -149 c-1 -82 -3
-239 -3 -348 0 -156 -3 -197 -12 -188 -18 18 -28 15 -29 -10 -1 -17 -2 -19 -6
-5 -4 16 -23 25 -23 10 0 -5 -18 -9 -39 -11 -37 -2 -39 -1 -44 30 -10 68 -8
236 3 243 15 10 10 135 -7 135 -6 0 -17 8 -22 18 -10 16 -10 16 -11 -3 0 -14
-3 -16 -11 -8 -6 6 -8 21 -4 33 5 17 9 19 16 9 13 -21 20 -5 13 30 -5 21 -10
28 -15 20 -4 -7 -8 54 -8 135 -1 101 2 145 9 141 6 -4 8 -21 4 -41z m2416 30
c0 -8 -4 -12 -10 -9 -5 3 -10 10 -10 16 0 5 5 9 10 9 6 0 10 -7 10 -16z m636
1 c-21 -16 -76 -21 -76 -7 0 5 13 7 29 4 16 -2 32 1 35 7 4 6 13 11 19 11 7 0
3 -7 -7 -15z m-6996 -10 c0 -8 -4 -15 -9 -15 -13 0 -22 16 -14 24 11 11 23 6
23 -9z m6903 2 c4 -11 -23 -18 -111 -30 -199 -29 -311 -40 -329 -32 -10 5 -21
7 -25 7 -5 -1 -8 2 -8 8 0 5 6 10 13 10 6 0 91 9 187 20 96 11 176 20 178 20
2 0 0 -4 -3 -10 -3 -5 1 -10 10 -10 9 0 14 4 10 9 -3 5 3 12 12 14 35 9 61 7
66 -6z m2681 -12 c-4 -8 -11 -15 -16 -15 -6 0 -5 6 2 15 7 8 14 15 16 15 2 0
1 -7 -2 -15z m-7554 -24 c0 -10 -7 -25 -16 -32 -14 -11 -18 -10 -30 6 -8 10
-11 21 -8 24 4 3 9 0 11 -6 5 -15 33 -17 33 -3 0 6 -5 10 -11 10 -5 0 -7 5 -4
10 10 16 25 11 25 -9z m1960 4 c0 -8 -4 -15 -10 -15 -5 0 -7 7 -4 15 4 8 8 15
10 15 2 0 4 -7 4 -15z m1345 -25 c3 -6 -1 -7 -9 -4 -18 7 -21 14 -7 14 6 0 13
-4 16 -10z m1003 -7 c-2 -13 -15 -19 -43 -21 -22 -2 -125 -10 -230 -17 l-190
-14 205 5 c113 3 222 7 243 11 37 6 37 5 36 -28 0 -19 -3 -28 -6 -21 -3 7 -25
12 -59 12 l-54 0 1 -42 c0 -38 1 -40 10 -19 8 20 14 22 42 16 17 -4 38 -7 45
-8 15 0 16 -17 1 -17 -5 0 -8 -4 -5 -9 3 -4 -38 -11 -92 -15 -221 -15 -262
-19 -262 -27 0 -5 9 -9 20 -9 11 0 20 -3 20 -7 0 -19 120 -45 189 -42 38 2 73
0 77 -4 10 -10 36 -9 30 2 -6 9 62 26 71 17 3 -3 3 -12 0 -19 -4 -11 -32 -17
-104 -21 l-98 -7 -175 58 -175 58 -3 77 -3 76 97 7 c71 6 103 4 117 -5 16 -9
21 -9 28 1 5 9 44 15 116 19 59 4 118 8 131 8 17 2 23 -3 20 -15z m3832 7 c0
-5 -7 -10 -16 -10 -8 0 -12 5 -9 10 3 6 10 10 16 10 5 0 9 -4 9 -10z m-5267
-33 c-24 -51 -32 -111 -19 -132 7 -11 15 -38 19 -60 3 -22 9 -55 12 -72 l8
-33 -142 0 -141 0 0 150 0 150 130 0 c115 0 130 2 130 17 0 9 3 13 7 10 3 -4
2 -17 -4 -30z m-3373 19 c0 -2 -7 -7 -16 -10 -8 -3 -12 -2 -9 4 6 10 25 14 25
6z m1250 0 c0 -3 -4 -8 -10 -11 -5 -3 -10 -1 -10 4 0 6 5 11 10 11 6 0 10 -2
10 -4z m1695 -9 l130 -3 0 -150 0 -149 -27 2 c-19 1 -28 -3 -28 -13 0 -8 7
-15 15 -15 8 -1 20 -2 26 -3 9 -1 13 -231 10 -658 l-1 -78 -166 0 -165 0 3
145 c2 80 4 141 6 136 2 -5 12 -7 22 -4 11 3 20 0 20 -6 0 -6 7 -11 15 -11 16
0 21 15 8 23 -5 2 -3 3 3 1 5 -1 21 4 35 12 15 8 18 14 9 14 -11 0 -10 3 4 11
13 8 15 13 6 19 -8 5 -3 10 14 14 28 7 36 26 11 26 -8 0 -15 9 -15 20 0 11 7
20 15 20 8 0 15 4 15 9 0 12 -56 31 -66 23 -4 -4 -4 -1 0 6 4 6 15 12 24 12
14 0 15 2 2 9 -8 6 -18 7 -22 5 -4 -3 -8 0 -8 6 0 6 -4 8 -10 5 -5 -3 -10 0
-10 7 0 8 -10 14 -22 15 -11 1 -25 8 -29 15 -6 10 -9 9 -13 -2 -2 -8 -7 -22
-9 -30 -3 -8 -6 0 -6 18 -1 25 3 32 18 32 11 0 22 -4 26 -9 6 -11 45 -10 45 1
0 4 -20 10 -45 14 -30 4 -45 11 -45 21 0 10 8 13 27 11 37 -4 40 18 3 25 l-30
7 0 229 0 229 38 -4 c20 -2 96 -5 167 -7z m616 -7 l119 0 0 -150 0 -150 -90 0
-90 0 11 -27 c13 -34 8 -162 -5 -160 -25 5 -37 53 -32 120 l6 67 -30 0 c-24 0
-30 4 -30 23 0 22 2 22 115 22 63 0 115 3 115 6 0 11 -82 18 -149 12 l-66 -5
-3 36 c-1 21 5 47 14 61 11 17 14 34 10 53 -4 15 -7 39 -6 54 0 15 -4 29 -10
33 -5 3 -10 12 -9 18 0 9 2 9 6 0 3 -10 38 -13 124 -13z m704 -10 c0 -11 -18
-16 -75 -21 l-75 -5 76 -2 75 -2 2 -40 c2 -29 -1 -40 -12 -40 -14 0 -152 56
-171 69 -5 4 -31 15 -57 25 -26 10 -50 21 -52 25 -3 4 61 7 142 7 124 -1 147
-3 147 -16z m818 13 c-7 -2 -19 -2 -25 0 -7 3 -2 5 12 5 14 0 19 -2 13 -5z
m3561 -17 c-8 -20 -34 -21 -34 0 0 8 4 13 9 9 5 -3 13 0 16 6 10 15 17 5 9
-15z m150 0 c-3 -9 -10 -16 -15 -16 -6 0 -5 9 1 21 13 24 24 20 14 -5z m-4850
-15 c34 -16 121 -54 194 -86 116 -51 132 -61 132 -81 0 -24 -15 -33 -22 -13
-2 7 -30 11 -73 10 -135 -3 -140 -4 -143 -30 l-4 -24 121 6 c120 5 121 5 121
-17 0 -22 -3 -23 -112 -25 -62 0 -118 2 -124 6 -6 5 -14 33 -18 63 -13 103
-32 104 -39 1 -3 -34 -10 -59 -20 -66 -10 -7 -59 -11 -129 -11 l-113 1 -3 145
-3 145 87 2 c78 3 94 0 148 -26z m1026 20 c0 -10 -24 -21 -46 -21 -8 0 -14 7
-14 15 0 10 10 15 30 15 17 0 30 -4 30 -9z m43 2 c-7 -2 -19 -2 -25 0 -7 3 -2
5 12 5 14 0 19 -2 13 -5z m627 -22 c0 -5 -11 -8 -25 -8 -14 0 -25 3 -25 8 0 5
11 9 25 9 14 0 25 -4 25 -9z m-4554 -16 c27 -8 59 -15 71 -15 26 0 39 -18 25
-32 -12 -12 -136 27 -154 49 -14 17 -3 16 58 -2z m483 -102 c1 -29 -2 -33 -25
-33 -17 0 -28 6 -31 20 -6 23 -19 26 -26 6 -5 -12 -16 -12 -78 0 -39 7 -74 16
-77 18 -5 6 41 26 61 26 7 1 46 18 87 39 l75 39 7 -42 c3 -22 7 -56 7 -73z
m-218 66 c-95 -44 -121 -49 -121 -19 0 18 5 20 38 14 30 -5 50 0 88 20 27 14
56 25 64 25 8 0 -23 -18 -69 -40z m-106 21 c3 -5 1 -10 -4 -10 -6 0 -11 5 -11
10 0 6 2 10 4 10 3 0 8 -4 11 -10z m3605 -51 c0 -28 -15 -23 -18 7 -1 14 2 23
8 19 6 -3 10 -15 10 -26z m63 11 c-3 -11 -7 -20 -9 -20 -2 0 -4 9 -4 20 0 11
4 20 9 20 5 0 7 -9 4 -20z m-6598 -10 c8 -24 -4 -87 -14 -73 -3 5 -14 12 -23
16 -18 6 -23 32 -12 61 9 23 41 20 49 -4z m7265 -16 c0 -3 -7 -12 -15 -20 -12
-13 -15 -13 -15 -1 0 7 3 17 7 20 8 8 23 9 23 1z m2150 -4 c0 -5 -4 -10 -10
-10 -5 0 -10 5 -10 10 0 6 5 10 10 10 6 0 10 -4 10 -10z m-8920 -20 c0 -5 -6
-9 -12 -7 -8 1 -13 -8 -12 -20 0 -13 -3 -23 -8 -23 -13 0 -9 48 5 53 20 9 27
8 27 -3z m6173 3 c-7 -2 -19 -2 -25 0 -7 3 -2 5 12 5 14 0 19 -2 13 -5z m487
-13 c0 -11 -4 -20 -9 -20 -5 0 -7 9 -4 20 3 11 7 20 9 20 2 0 4 -9 4 -20z
m-4433 -22 c-3 -7 -5 -2 -5 12 0 14 2 19 5 13 2 -7 2 -19 0 -25z m4393 12
c-10 -20 -45 -28 -52 -12 -1 4 -16 5 -33 1 -21 -5 -24 -7 -10 -9 15 -2 12 -4
-10 -10 -50 -13 -96 -11 -111 5 -9 8 -12 15 -7 16 4 0 53 7 108 14 55 7 106
13 113 14 10 1 10 -4 2 -19z m-6900 -25 c0 -42 -24 -49 -34 -10 -8 30 -1 45
20 45 9 0 14 -11 14 -35z m2739 -53 c-2 -77 -5 -88 -21 -89 -23 -2 -25 45 -3
53 11 5 15 22 15 65 0 32 2 59 6 59 3 0 4 -40 3 -88z m-3055 72 c20 -8 21 -48
1 -64 -33 -27 -57 9 -35 51 12 21 12 21 34 13z m4046 2 c0 -3 -4 -8 -10 -11
-5 -3 -10 -1 -10 4 0 6 5 11 10 11 6 0 10 -2 10 -4z m2327 -2 c-3 -3 -12 -4
-19 -1 -8 3 -5 6 6 6 11 1 17 -2 13 -5z m86 -1 c-13 -2 -33 -2 -45 0 -13 2 -3
4 22 4 25 0 35 -2 23 -4z m-284 -49 c2 -2 -13 0 -33 3 -24 4 -36 2 -36 -6 0
-8 20 -11 63 -10 34 2 80 -4 102 -11 l40 -14 -55 -7 c-30 -4 -79 -7 -107 -8
l-53 -1 0 44 0 45 38 -16 c20 -8 39 -17 41 -19z m-3830 0 c14 -12 -19 -1 -35
12 -18 14 -18 14 6 3 14 -6 27 -13 29 -15z m4471 22 c0 -11 -19 -15 -25 -6 -3
5 1 10 9 10 9 0 16 -2 16 -4z m79 -2 c17 -4 28 -10 25 -15 -8 -13 -52 -11 -60
2 -5 8 -9 8 -14 -1 -5 -8 -9 -7 -13 4 -7 18 9 20 62 10z m-157 -11 c-6 -2 -10
-9 -6 -14 3 -5 -6 -9 -20 -9 -16 0 -26 6 -26 15 0 10 10 15 33 14 17 0 26 -3
19 -6z m-4482 -12 c0 -5 12 -23 26 -40 14 -17 21 -31 14 -31 -6 0 -19 13 -28
30 -9 16 -20 30 -24 30 -5 0 -8 5 -8 10 0 6 5 10 10 10 6 0 10 -4 10 -9z
m3718 2 c-10 -2 -26 -2 -35 0 -10 3 -2 5 17 5 19 0 27 -2 18 -5z m-2618 -105
l-1 -53 -14 34 c-17 38 -19 53 -5 31 8 -12 10 -11 10 6 0 12 -9 31 -20 44 -29
33 -25 46 5 16 21 -21 25 -35 25 -78z m-1102 51 c16 -26 1 -43 -48 -52 -31 -7
-32 -6 -16 6 11 8 16 19 12 25 -4 7 -2 12 3 12 6 0 11 9 11 20 0 23 20 18 38
-11z m102 3 c0 -10 -22 -32 -32 -32 -5 0 -3 9 4 20 13 20 28 27 28 12z m7547
-38 c15 -21 18 -134 3 -134 -5 0 -10 16 -10 36 0 35 -1 35 -37 34 -21 -1 -44
-2 -50 -1 -17 1 -16 42 1 67 18 25 74 24 93 -2z m-6927 -8 c0 -19 -8 -26 -42
-35 -24 -7 -69 -13 -100 -14 -37 -1 -58 -6 -58 -14 0 -8 11 -10 35 -6 23 4 35
2 35 -6 0 -6 -7 -11 -15 -11 -8 0 -15 -5 -15 -11 0 -6 -7 -9 -15 -5 -13 4 -14
2 -5 -14 6 -11 13 -20 16 -20 13 0 50 47 46 59 -3 8 1 12 9 9 7 -2 16 -17 20
-32 6 -23 3 -33 -19 -55 -23 -22 -27 -24 -30 -8 -2 9 -10 17 -17 17 -9 0 -12
-6 -9 -15 4 -9 0 -15 -9 -15 -10 0 -13 7 -10 20 3 13 -1 26 -10 33 -9 7 -19
33 -22 58 l-7 46 89 12 c48 7 97 17 108 21 11 5 21 9 23 9 1 1 2 -10 2 -23z
m1948 -22 c-1 -10 -7 -16 -13 -13 -10 4 -14 28 -7 42 7 14 24 -10 20 -29z
m302 -38 c0 -56 2 -64 21 -69 16 -4 19 -11 14 -26 -3 -12 -2 -21 3 -21 5 0 -4
-27 -20 -60 -15 -33 -30 -60 -33 -60 -3 0 -5 70 -5 156 0 101 3 153 10 149 6
-3 10 -35 10 -69z m638 -52 c0 -71 4 -130 10 -136 6 -6 24 -7 41 -3 24 5 31
12 31 30 0 29 -27 40 -48 19 -11 -12 -17 -13 -20 -5 -5 15 27 40 50 41 21 0
33 -39 24 -74 -4 -15 -1 -26 7 -29 9 -4 9 -8 -2 -15 -7 -5 -10 -15 -7 -21 4
-6 1 -11 -6 -11 -7 0 -19 -9 -26 -20 -11 -18 -10 -22 10 -29 13 -5 29 -6 36
-4 6 3 12 0 12 -7 0 -6 4 -9 9 -6 5 3 11 -5 13 -18 4 -17 1 -23 -9 -19 -7 3
-11 9 -8 13 3 5 0 12 -7 16 -18 12 -68 15 -68 5 0 -5 -6 -8 -12 -6 -47 11 -58
19 -57 39 1 16 2 17 6 4 4 -14 8 -15 29 -6 31 15 69 77 55 91 -9 9 -16 4 -8
-6 4 -7 -25 -37 -36 -37 -7 0 -7 4 1 12 19 19 14 25 -25 26 -30 1 -34 -1 -20
-9 16 -10 16 -11 0 -34 -10 -14 -20 -25 -23 -25 -9 0 -5 71 5 78 6 4 11 13 13
20 1 6 3 15 4 20 1 4 -2 24 -7 45 -5 25 -3 52 5 77 9 29 10 46 2 69 -7 19 -7
29 -2 26 6 -4 10 -1 10 4 0 6 4 11 9 11 5 0 9 -57 9 -126z m526 111 c3 -8 1
-15 -4 -15 -6 0 -10 7 -10 15 0 8 2 15 4 15 2 0 6 -7 10 -15z m-3272 -17 c-7
-7 -12 -8 -12 -2 0 6 3 14 7 17 3 4 9 5 12 2 2 -3 -1 -11 -7 -17z m2003 12 c3
-5 -1 -10 -10 -10 -9 0 -13 5 -10 10 3 6 8 10 10 10 2 0 7 -4 10 -10z m45
-250 c-1 -152 -4 -258 -10 -255 -5 3 -12 0 -16 -6 -4 -7 -3 -9 4 -5 6 3 13 2
17 -4 3 -5 1 -10 -4 -10 -6 0 -11 -10 -10 -22 0 -22 1 -22 9 -3 8 18 9 17 9
-7 1 -16 -4 -28 -11 -28 -8 0 -9 -3 -3 -8 15 -10 19 -62 5 -62 -7 0 -9 7 -6
16 3 8 -1 22 -9 31 -8 8 -13 19 -10 24 4 5 1 9 -4 9 -6 0 -11 -7 -11 -15 0
-22 -21 -18 -27 5 -6 22 -11 24 -32 11 -7 -5 -10 -14 -6 -21 6 -9 9 -9 16 1 7
11 9 10 9 -3 0 -12 -8 -18 -25 -18 -14 0 -29 -8 -35 -21 -7 -11 -14 -19 -16
-16 -7 7 -64 -50 -64 -63 0 -5 -9 -10 -20 -10 -20 0 -20 7 -20 340 l0 340 24
-6 c24 -6 66 23 66 46 0 6 6 10 13 9 18 -1 54 -17 40 -18 -7 -1 -13 -5 -13
-10 0 -12 53 -11 61 1 3 5 9 3 12 -6 4 -9 3 -15 -1 -15 -20 3 -40 -3 -58 -17
-19 -15 -19 -15 3 -11 13 3 24 -1 27 -9 3 -8 15 -14 26 -14 16 0 20 7 21 33 0
17 3 26 6 20 11 -28 33 -13 33 22 0 19 2 35 5 35 3 0 5 -117 5 -260z m349 125
l-6 -90 0 115 c-1 63 2 104 6 90 3 -14 4 -65 0 -115z m218 113 c-3 -8 -6 -5
-6 6 -1 11 2 17 5 13 3 -3 4 -12 1 -19z m523 12 c0 -5 -4 -10 -10 -10 -5 0
-10 5 -10 10 0 6 5 10 10 10 6 0 10 -4 10 -10z m616 -38 c-11 -10 -15 4 -8 28
l7 25 3 -23 c2 -13 1 -26 -2 -30z m2099 38 c-3 -5 -11 -10 -16 -10 -6 0 -7 5
-4 10 3 6 11 10 16 10 6 0 7 -4 4 -10z m1363 -6 c35 -17 41 -43 16 -68 -21
-21 -80 -21 -88 0 -13 34 -6 65 17 74 12 5 22 9 23 9 0 1 15 -6 32 -15z
m-4983 -4 c3 -5 -1 -10 -9 -10 -8 0 -18 5 -21 10 -3 6 1 10 9 10 8 0 18 -4 21
-10z m114 -72 c-1 -76 -2 -80 -12 -45 -6 20 -14 37 -19 37 -4 0 -8 5 -8 10 0
6 7 10 15 10 18 0 19 12 3 28 -8 8 -8 15 2 27 7 8 14 15 16 15 2 0 3 -37 3
-82z m136 43 c-3 -12 -11 -19 -16 -16 -5 4 -5 14 2 26 13 26 23 18 14 -10z
m42 7 c-3 -8 -6 -5 -6 6 -1 11 2 17 5 13 3 -3 4 -12 1 -19z m714 -69 l-11 -34
5 34 c3 18 6 48 7 65 l1 31 4 -31 c2 -18 -1 -47 -6 -65z m-3635 34 c-3 -3 -25
-5 -50 -5 -36 1 -45 -2 -49 -18 -6 -22 -29 -28 -26 -7 4 32 -1 39 -27 33 -23
-6 -24 -5 -14 14 11 21 30 27 30 10 0 -12 95 -4 119 10 12 7 17 4 19 -11 2
-12 1 -23 -2 -26z m3553 3 c-2 -19 -2 -18 -6 3 -4 19 -7 21 -13 10 -7 -10 -9
-8 -7 8 1 17 4 19 14 11 7 -6 12 -20 12 -32z m2681 34 c0 -5 5 -10 11 -10 5 0
7 5 4 10 -3 6 -1 10 4 10 6 0 11 -7 11 -16 0 -10 -7 -14 -22 -12 -22 3 -39 28
-19 28 6 0 11 -4 11 -10z m-6420 -7 c0 -5 -5 -15 -10 -23 -8 -12 -10 -11 -10
8 0 12 5 22 10 22 6 0 10 -3 10 -7z m440 -48 c0 -40 -4 -55 -14 -55 -8 0 -17
7 -20 16 -5 14 -4 15 9 4 13 -10 15 -9 15 9 0 19 -4 21 -22 15 -20 -6 -21 -5
-9 10 8 9 11 19 8 23 -5 5 20 31 31 33 1 0 2 -25 2 -55z m2400 -13 c0 -15 4
-21 12 -16 8 5 9 2 5 -10 -4 -10 -7 -22 -7 -27 0 -6 -5 -7 -10 -4 -6 4 -8 11
-4 16 3 5 0 16 -6 24 -6 8 -9 19 -5 25 4 6 -1 17 -11 24 -10 8 -14 18 -9 26
10 16 34 -24 35 -58z m2016 42 c8 3 13 2 10 -3 -8 -12 -46 -21 -46 -10 0 19
-19 8 -23 -13 -3 -14 -5 -7 -6 16 l-1 38 26 -17 c14 -9 32 -14 40 -11z m-1966
6 c0 -5 -2 -10 -4 -10 -3 0 -8 5 -11 10 -3 6 -1 10 4 10 6 0 11 -4 11 -10z
m-4540 -15 c0 -9 -6 -12 -15 -9 -8 4 -12 10 -9 15 8 14 24 10 24 -6z m2180
-36 c0 -40 -35 -41 -43 -2 -7 35 -2 42 23 36 14 -4 20 -14 20 -34z m290 32 c0
-5 -7 -11 -14 -14 -10 -4 -13 -1 -9 9 6 15 23 19 23 5z m2267 -23 c-3 -7 -5
-2 -5 12 0 14 2 19 5 13 2 -7 2 -19 0 -25z m130 -37 c1 -7 -2 -23 -7 -35 -7
-17 -9 -13 -9 21 -1 23 -5 45 -11 48 -5 3 -10 11 -10 18 0 14 34 -33 37 -52z
m3153 49 c0 -5 -4 -10 -10 -10 -5 0 -10 5 -10 10 0 6 5 10 10 10 6 0 10 -4 10
-10z m-6190 -20 c0 -24 0 -24 -35 -6 l-27 14 23 5 c13 2 27 5 32 6 4 0 7 -8 7
-19z m1492 -107 c2 -71 0 -132 -3 -138 -4 -5 -5 -34 -3 -64 5 -56 -3 -101 -15
-83 -6 9 -7 117 -3 330 3 129 20 96 24 -45z m2098 123 c0 -3 -4 -8 -10 -11 -5
-3 -10 -1 -10 4 0 6 5 11 10 11 6 0 10 -2 10 -4z m1136 -9 c2 -7 23 -14 47
-16 82 -4 49 -12 -43 -9 -69 2 -95 7 -98 17 -3 10 2 13 21 9 14 -3 32 -1 39 3
19 12 28 11 34 -4z m-4332 -18 c-9 -15 -34 -10 -28 5 3 8 12 12 20 9 8 -3 11
-9 8 -14z m3003 -1 c-3 -8 -6 -5 -6 6 -1 11 2 17 5 13 3 -3 4 -12 1 -19z m766
-6 c0 -12 -1 -31 -2 -43 -1 -12 -5 -17 -12 -13 -7 4 -9 20 -6 40 4 20 1 35 -6
38 -7 3 -3 5 8 3 13 -1 19 -9 18 -25z m2055 -3 c-3 -8 -7 -3 -11 10 -4 17 -3
21 5 13 5 -5 8 -16 6 -23z m-5679 -94 l1 -31 -72 1 -71 0 -12 51 c-14 63 -4
73 73 67 43 -4 53 -1 59 14 6 13 9 6 15 -27 3 -25 7 -59 7 -75z m4361 100 l35
-14 -51 2 c-36 1 -50 6 -47 15 6 15 18 14 63 -3z m-6765 -24 c-6 -5 -25 10
-25 20 0 5 6 4 14 -3 8 -7 12 -15 11 -17z m1132 7 c-3 -8 -6 -5 -6 6 -1 11 2
17 5 13 3 -3 4 -12 1 -19z m943 -4 c0 -8 -5 -12 -10 -9 -6 4 -8 11 -5 16 9 14
15 11 15 -7z m410 -6 l9 -23 0 23 c1 12 5 22 11 22 5 0 10 -37 12 -82 2 -60 6
-82 16 -80 6 1 12 -5 12 -13 0 -21 -13 -19 -30 4 -10 14 -18 17 -30 11 -38
-20 -52 42 -28 120 7 22 14 40 16 40 1 0 7 -10 12 -22z m7225 -8 c4 -11 11
-18 16 -14 6 3 21 -2 35 -11 47 -30 12 -107 -35 -78 -16 10 -30 9 -71 -3 -58
-17 -77 -13 -30 6 29 12 30 15 24 55 -5 35 -3 45 13 54 27 16 41 13 48 -9z
m-7505 -34 c0 -36 -3 -44 -17 -42 -28 4 -14 84 15 86 1 0 2 -20 2 -44z m4005
34 c-3 -5 -10 -10 -16 -10 -5 0 -9 5 -9 10 0 6 7 10 16 10 8 0 12 -4 9 -10z
m1869 -1 c-6 -11 -31 -12 -37 -1 -3 4 6 8 19 8 13 1 21 -2 18 -7z m-6395 -42
c1 -5 -3 -5 -9 -2 -5 3 -10 16 -9 28 0 21 1 21 9 2 5 -11 9 -24 9 -28z m4291
33 c0 -5 -4 -10 -10 -10 -5 0 -10 5 -10 10 0 6 5 10 10 10 6 0 10 -4 10 -10z
m267 -12 c-3 -8 -6 -5 -6 6 -1 11 2 17 5 13 3 -3 4 -12 1 -19z m-4117 -33 l0
-45 -30 26 c-29 26 -32 51 -4 40 8 -3 13 -2 13 2 -2 15 1 22 11 22 6 0 10 -20
10 -45z m2745 35 c3 -5 1 -10 -4 -10 -6 0 -11 5 -11 10 0 6 2 10 4 10 3 0 8
-4 11 -10z m1071 -9 c0 -11 -5 -17 -13 -14 -14 6 -17 16 -6 26 11 12 19 7 19
-12z m-776 -1 c0 -5 -2 -10 -4 -10 -3 0 -8 5 -11 10 -3 6 -1 10 4 10 6 0 11
-4 11 -10z m1510 -5 c0 -12 -7 -14 -27 -9 -53 13 -60 23 -15 24 31 0 42 -4 42
-15z m45 5 c-3 -5 -12 -7 -20 -3 -21 7 -19 13 6 13 11 0 18 -4 14 -10z m-4677
-7 c-10 -2 -26 -2 -35 0 -10 3 -2 5 17 5 19 0 27 -2 18 -5z m2572 -9 c0 -8 -5
-12 -10 -9 -6 4 -8 11 -5 16 9 14 15 11 15 -7z m135 6 c3 -5 -1 -10 -9 -10 -9
0 -16 5 -16 10 0 6 4 10 9 10 6 0 13 -4 16 -10z m670 3 c-23 -6 -37 -23 -31
-39 3 -7 -3 -10 -15 -7 -10 3 -19 7 -19 10 0 12 47 42 65 42 l20 -1 -20 -5z
m955 -8 c-7 -9 -15 -13 -19 -10 -3 3 1 10 9 15 21 14 24 12 10 -5z m-1160 -20
c0 -9 -6 -12 -17 -8 -12 5 -15 2 -10 -10 8 -21 -6 -22 -22 -3 -10 11 -8 16 8
21 12 3 21 11 21 16 0 6 5 7 10 4 6 -3 10 -13 10 -20z m128 0 c-2 -16 -7 -24
-15 -21 -7 3 -13 1 -13 -5 0 -6 -5 -7 -10 -4 -6 4 -3 16 7 30 23 31 33 31 31
0z m554 3 c-7 -7 -12 -8 -12 -2 0 14 12 26 19 19 2 -3 -1 -11 -7 -17z m-1391
-7 c-7 -4 -4 -12 8 -21 11 -7 17 -20 14 -29 -2 -9 3 -4 12 12 8 15 19 27 23
28 56 6 52 12 51 -70 -1 -70 -2 -73 -12 -41 -8 28 -11 31 -15 15 -6 -30 -20
-41 -27 -22 -4 9 -13 13 -22 10 -13 -5 -15 -1 -10 19 5 18 1 30 -13 43 -11 10
-17 22 -14 26 3 5 1 9 -4 9 -5 0 -12 8 -15 19 -3 14 0 17 15 13 11 -3 15 -8 9
-11z m282 12 c-22 -8 -14 -28 12 -29 14 -1 25 2 25 7 0 5 5 9 11 9 6 0 9 -7 5
-15 -3 -8 -2 -15 3 -15 12 0 21 -39 10 -46 -14 -8 -11 -21 7 -28 12 -4 14 -1
9 13 -5 18 25 51 48 51 12 0 4 -120 -8 -120 -7 0 -7 -3 0 -8 17 -12 18 -69 1
-75 -9 -4 -18 -2 -21 3 -4 6 -15 10 -25 10 -10 0 -21 6 -23 13 -4 9 -8 9 -15
-2 -14 -20 -22 2 -12 35 4 16 9 21 9 12 1 -10 8 -18 17 -18 11 0 14 6 9 21 -5
14 -2 25 6 30 12 7 11 11 -3 25 -16 16 -18 16 -23 1 -4 -10 -13 -13 -23 -9
-15 5 -15 4 -3 -11 12 -15 11 -17 -8 -17 -30 0 -26 14 14 44 21 17 32 32 29
41 -9 21 -24 18 -24 -4 0 -11 -5 -23 -11 -27 -8 -4 -9 0 -4 15 4 12 2 21 -4
21 -6 0 -11 -8 -12 -17 0 -12 -2 -13 -6 -5 -3 7 3 22 13 33 15 16 15 19 2 19
-9 0 -18 -7 -22 -15 -3 -8 -15 -15 -26 -15 -18 0 -19 3 -10 20 9 17 7 22 -12
30 -20 9 -19 10 9 6 21 -4 33 -1 37 9 3 8 11 15 18 14 10 0 10 -2 1 -6z m835
-10 c-2 -14 3 -17 21 -15 23 4 23 3 8 -13 -9 -9 -21 -13 -27 -10 -13 8 -13
-11 0 -36 8 -15 7 -19 -5 -19 -8 0 -15 -4 -15 -10 0 -5 -7 -10 -15 -10 -20 0
-19 17 1 28 13 7 16 19 12 50 -5 37 -2 45 20 51 2 1 2 -7 0 -16z m418 3 c9 -9
10 -17 4 -21 -5 -3 -10 -1 -10 4 0 6 -9 11 -21 11 -11 0 -17 5 -14 10 9 14 24
12 41 -4z m-4216 -6 c0 -5 -2 -10 -4 -10 -3 0 -8 5 -11 10 -3 6 -1 10 4 10 6
0 11 -4 11 -10z m3936 -5 c-34 -18 -57 -19 -51 -2 3 6 22 13 43 15 l37 2 -29
-15z m-4076 1 c0 -3 -4 -8 -10 -11 -5 -3 -10 -1 -10 4 0 6 5 11 10 11 6 0 10
-2 10 -4z m2990 -6 c0 -5 -4 -10 -10 -10 -5 0 -10 5 -10 10 0 6 5 10 10 10 6
0 10 -4 10 -10z m1292 -3 c20 0 23 -3 15 -12 -7 -7 -16 -11 -21 -8 -4 3 -13
-1 -18 -8 -7 -11 -8 -9 -4 5 5 16 2 17 -21 13 -16 -4 -22 -4 -15 -1 6 3 9 11
5 17 -4 7 0 8 13 2 10 -5 31 -8 46 -8z m-4242 -23 c0 -8 -4 -12 -10 -9 -5 3
-10 13 -10 21 0 8 5 12 10 9 6 -3 10 -13 10 -21z m246 -20 c13 -10 12 -12 -2
-18 -9 -3 -20 -4 -24 -1 -9 6 -26 -62 -18 -71 3 -2 17 0 32 5 16 7 26 7 26 1
0 -5 7 -7 15 -4 10 4 19 -4 26 -22 10 -23 13 -25 16 -11 3 9 8 17 12 17 13 0
31 -24 32 -44 1 -14 3 -12 8 8 7 35 31 47 31 17 0 -12 -5 -21 -12 -21 -9 0 -9
-3 0 -12 17 -17 15 -29 -3 -22 -8 4 -15 1 -15 -6 0 -6 -4 -8 -10 -5 -5 3 -10
17 -10 31 0 14 -6 24 -15 24 -9 0 -12 -6 -8 -17 3 -12 -3 -9 -18 8 -17 18 -38
28 -69 32 -42 6 -44 5 -25 -9 20 -15 19 -15 -5 -12 -22 3 -25 7 -23 38 4 62
15 100 26 93 5 -3 7 -1 4 5 -4 5 -4 18 0 29 7 17 8 17 11 -2 2 -11 10 -25 18
-31z m2924 37 c0 -6 -4 -13 -10 -16 -5 -3 -10 1 -10 9 0 9 5 16 10 16 6 0 10
-4 10 -9z m260 -7 c0 5 9 -1 20 -14 11 -13 20 -18 20 -12 0 7 5 12 10 12 6 0
9 -13 8 -30 -2 -28 -3 -29 -23 -12 -11 9 -26 25 -33 34 -7 9 -19 15 -27 12 -8
-4 -15 -2 -15 4 0 15 24 21 32 8 4 -6 8 -7 8 -2z m118 -14 c-1 -39 -18 -51
-18 -12 0 25 7 42 16 42 1 0 2 -14 2 -30z m180 17 c18 -12 15 -27 -5 -20 -12
5 -15 2 -10 -10 4 -11 2 -14 -9 -10 -7 3 -14 0 -14 -5 0 -18 20 -24 35 -12 11
9 15 9 15 1 0 -10 -49 -36 -55 -29 -6 7 -25 47 -25 52 0 3 7 6 15 6 13 0 19
11 16 32 -1 8 20 5 37 -5z m-5846 -38 c-5 -45 -16 -55 -47 -41 -32 15 -32 35
2 62 35 27 49 21 45 -21z m848 25 c0 -8 -4 -12 -10 -9 -5 3 -10 10 -10 16 0 5
5 9 10 9 6 0 10 -7 10 -16z m4270 -5 c0 -14 -17 -10 -23 5 -4 10 -1 13 9 9 7
-3 14 -9 14 -14z m1064 4 c3 -10 9 -24 12 -32 4 -9 2 -12 -7 -9 -8 3 -15 10
-15 16 -1 7 -2 18 -3 25 -1 7 -7 5 -16 -7 -8 -10 -19 -15 -26 -11 -8 6 -4 12
12 21 32 17 36 17 43 -3z m76 7 c0 -5 -2 -10 -4 -10 -3 0 -8 5 -11 10 -3 6 -1
10 4 10 6 0 11 -4 11 -10z m-4425 -22 c6 -4 2 -8 -7 -8 -10 0 -18 7 -18 17 0
9 3 12 8 7 4 -5 12 -12 17 -16z m3048 5 c2 -10 8 -27 12 -38 3 -11 -1 -8 -10
8 -16 28 -35 36 -35 15 0 -6 -3 -9 -6 -5 -10 10 4 37 20 37 7 0 16 -8 19 -17z
m-4081 -15 c-7 -7 -12 -8 -12 -2 0 14 12 26 19 19 2 -3 -1 -11 -7 -17z m1412
7 c3 -8 12 -12 20 -9 11 4 13 0 9 -16 -4 -14 -8 -18 -13 -10 -4 7 -16 9 -29 5
-12 -4 -21 -2 -21 4 0 6 5 11 11 11 8 0 8 5 -1 15 -10 12 -10 15 3 15 8 0 17
-7 21 -15z m420 0 c17 -13 18 -15 3 -15 -9 0 -17 -6 -17 -12 0 -17 -20 12 -20
30 0 16 10 15 34 -3z m826 11 c0 -2 -9 -23 -20 -47 l-20 -44 0 48 c0 40 3 47
20 47 11 0 20 -2 20 -4z m1629 -3 c-4 -27 1 -35 16 -23 9 7 15 8 15 2 0 -5 8
-8 19 -5 12 3 20 -2 24 -16 6 -24 4 -25 -23 -9 -16 10 -23 10 -37 -5 -9 -9
-12 -17 -6 -17 6 0 14 6 17 13 3 8 9 6 20 -7 9 -11 14 -21 13 -23 -2 -2 -25
-5 -50 -7 l-47 -5 0 48 c0 26 3 51 7 54 9 9 33 9 32 0z m996 -3 c-4 -6 -2 -16
3 -23 7 -8 6 -16 -2 -23 -9 -9 -12 -3 -13 22 -1 19 3 34 9 34 5 0 6 -5 3 -10z
m335 1 c0 -6 -4 -12 -8 -15 -5 -3 -9 1 -9 9 0 8 4 15 9 15 4 0 8 -4 8 -9z
m-4350 -30 c0 -17 -4 -33 -10 -36 -6 -4 -10 8 -10 29 0 20 5 36 10 36 6 0 10
-13 10 -29z m340 14 c0 -8 -2 -15 -4 -15 -2 0 -6 7 -10 15 -3 8 -1 15 4 15 6
0 10 -7 10 -15z m98 -86 c-7 -5 -20 -8 -28 -8 -8 0 -5 4 8 9 12 5 22 13 22 18
0 14 -38 11 -44 -4 -6 -16 -36 -19 -36 -4 0 6 5 10 10 10 6 0 19 9 29 19 11
11 25 30 33 43 12 22 13 20 16 -26 2 -32 -1 -52 -10 -57z m72 70 c0 -17 -4
-28 -10 -24 -5 3 -8 16 -6 28 6 28 5 27 11 27 3 0 5 -14 5 -31z m113 -1 c16
-26 16 -27 -3 -25 -15 1 -20 9 -20 31 0 16 1 27 3 25 2 -2 11 -16 20 -31z
m607 18 c0 -8 -4 -18 -10 -21 -5 -3 -10 -2 -10 3 0 9 -98 8 -108 -3 -12 -11
15 -40 40 -43 14 -2 31 4 38 12 13 16 59 22 61 9 4 -58 11 -103 19 -127 6 -16
8 -32 5 -34 -7 -8 -34 31 -29 40 3 4 -2 5 -10 2 -9 -3 -17 2 -21 15 -3 12 -13
21 -21 21 -8 0 -26 12 -41 26 -14 14 -27 23 -30 20 -3 -3 8 -17 23 -31 34 -31
14 -23 -35 14 -33 25 -34 25 -22 3 6 -12 15 -22 20 -22 16 0 51 -38 51 -56 0
-16 2 -17 10 -4 8 12 12 13 19 2 4 -8 12 -14 17 -13 5 0 24 -9 42 -19 34 -20
42 -40 17 -40 -8 0 -15 -5 -15 -11 0 -6 8 -8 19 -4 17 5 22 -1 30 -32 10 -39
14 -70 12 -89 0 -6 -19 -10 -41 -10 -23 0 -34 3 -27 8 8 5 7 8 -5 8 -10 0 -18
5 -18 10 0 6 7 10 15 10 8 0 15 4 15 10 0 5 8 6 17 3 11 -4 12 -8 5 -11 -7 -2
-12 -8 -12 -13 0 -5 8 -4 18 2 16 10 17 16 8 35 -6 13 -17 24 -23 24 -7 0 -13
5 -13 10 0 6 -4 10 -10 10 -5 0 -7 -6 -4 -14 3 -8 1 -17 -5 -21 -7 -3 -11 3
-11 15 0 15 -5 20 -15 16 -8 -3 -22 2 -31 11 -13 13 -17 14 -24 3 -6 -10 -12
-11 -22 -3 -9 8 -16 7 -26 -3 -10 -11 -10 -14 2 -14 7 0 16 -7 20 -15 3 -8 12
-12 21 -9 8 3 15 2 15 -4 0 -5 -17 -13 -37 -17 -27 -5 -33 -9 -22 -16 8 -5 11
-9 7 -9 -3 0 -13 -3 -21 -6 -21 -8 -23 161 -2 182 8 9 15 10 18 4 3 -6 4 -5 3
2 -2 7 -11 12 -20 10 -15 -3 -17 5 -15 57 2 63 6 70 27 49 6 -6 14 -9 17 -6 3
3 0 12 -8 20 -8 7 -19 23 -25 35 -12 21 -10 22 40 26 115 8 118 7 118 -7z m80
-23 c0 -24 -3 -33 -9 -25 -7 12 -4 62 5 62 2 0 4 -17 4 -37z m2154 15 c-5 -7
-7 -24 -6 -38 2 -17 0 -21 -6 -12 -5 7 -16 10 -25 6 -10 -3 -17 -1 -17 5 0 6
5 10 12 9 6 -2 14 6 16 17 4 19 23 38 30 30 2 -2 0 -10 -4 -17z m182 7 c-3 -8
-1 -15 4 -15 6 0 10 4 10 9 0 14 29 21 36 9 4 -7 3 -8 -4 -4 -6 3 -16 -3 -22
-14 -9 -17 -14 -19 -26 -10 -11 10 -16 7 -23 -13 -11 -28 -41 -44 -41 -22 0 8
7 15 15 15 8 0 15 5 15 12 0 11 29 48 38 48 2 0 2 -7 -2 -15z m-3556 -23 c-7
-3 -19 3 -28 13 -16 15 -15 16 12 4 15 -7 23 -15 16 -17z m570 9 c0 -4 -7 -8
-15 -8 -8 0 -15 6 -15 13 0 8 6 11 15 8 8 -4 15 -9 15 -13z m269 0 c13 -11 20
-24 17 -30 -4 -5 -1 -13 5 -17 8 -4 9 -3 5 4 -4 7 -2 12 3 12 6 0 11 -6 11
-12 0 -10 2 -10 8 -1 4 7 13 9 20 4 10 -6 13 -47 13 -166 -1 -157 -4 -175 -36
-175 -5 0 -3 5 5 10 12 8 11 10 -7 10 -26 0 -31 18 -7 27 9 3 20 0 25 -8 6 -9
8 -1 7 24 -1 28 -5 37 -19 37 -10 0 -23 -8 -28 -17 -11 -19 -11 -18 -15 49 -1
19 -46 56 -46 38 0 -6 7 -13 16 -17 8 -3 13 -12 10 -19 -3 -7 -1 -16 4 -19 6
-4 10 -16 10 -27 0 -19 -4 -20 -74 -16 -55 4 -73 2 -70 -7 3 -6 18 -11 34 -10
18 1 30 -3 30 -11 0 -7 6 -15 13 -18 13 -6 -30 4 -52 12 -8 3 -12 1 -8 -4 3
-5 -3 -10 -13 -10 -18 0 -19 9 -19 134 0 129 0 134 20 129 13 -4 19 -1 17 8
-4 16 4 18 40 11 15 -4 47 -2 72 3 25 5 35 9 23 10 -13 1 -23 5 -23 10 0 5
-10 11 -22 15 -22 5 -22 6 -3 20 17 14 18 17 5 26 -8 5 -10 10 -4 10 6 0 21
-9 33 -19z m1114 -6 c-7 -21 -13 -19 -13 6 0 11 4 18 10 14 5 -3 7 -12 3 -20z
m2264 3 c-3 -8 -6 -5 -6 6 -1 11 2 17 5 13 3 -3 4 -12 1 -19z m1643 13 c0 -6
-4 -13 -10 -16 -5 -3 -10 1 -10 9 0 9 5 16 10 16 6 0 10 -4 10 -9z m1047 -61
c-3 -43 -21 -70 -48 -70 -11 0 -19 -6 -20 -12 0 -7 -5 -2 -10 11 -14 36 -8 99
13 121 18 19 20 19 43 4 20 -13 24 -23 22 -54z m-7667 51 c0 -5 -7 -11 -15
-15 -15 -5 -20 5 -8 17 9 10 23 9 23 -2z m495 0 c3 -5 1 -12 -5 -16 -5 -3 -10
1 -10 9 0 18 6 21 15 7z m80 -21 c0 -18 -6 -26 -21 -28 -26 -4 -40 24 -23 45
18 21 44 11 44 -17z m820 20 c-3 -5 -12 -7 -20 -3 -21 7 -19 13 6 13 11 0 18
-4 14 -10z m278 -4 c4 -11 -1 -14 -21 -12 -14 2 -28 8 -30 15 -5 16 45 14 51
-3z m-2258 -6 c3 -5 1 -10 -4 -10 -6 0 -11 5 -11 10 0 6 2 10 4 10 3 0 8 -4
11 -10z m4599 -6 c4 -10 1 -14 -6 -12 -15 5 -23 28 -10 28 5 0 13 -7 16 -16z
m-2994 -9 c0 -8 -2 -15 -4 -15 -2 0 -6 7 -10 15 -3 8 -1 15 4 15 6 0 10 -7 10
-15z m477 -7 c-3 -8 -6 -5 -6 6 -1 11 2 17 5 13 3 -3 4 -12 1 -19z m1190 -10
c-3 -7 -5 -2 -5 12 0 14 2 19 5 13 2 -7 2 -19 0 -25z m1493 28 c0 -2 -7 -7
-16 -10 -8 -3 -12 -2 -9 4 6 10 25 14 25 6z m-4181 -63 c-12 -13 -15 -13 -31
7 -20 24 -23 40 -9 40 5 0 11 -9 14 -21 7 -26 26 -16 28 14 2 21 2 21 6 -1 3
-13 -1 -30 -8 -39z m444 41 c-4 -10 1 -17 16 -21 28 -7 27 -24 -1 -20 -12 2
-25 12 -29 23 -11 29 -10 34 6 34 9 0 12 -6 8 -16z m499 -6 c-7 -7 -12 -8 -12
-2 0 6 3 14 7 17 3 4 9 5 12 2 2 -3 -1 -11 -7 -17z m43 12 c3 -5 -1 -10 -10
-10 -9 0 -13 5 -10 10 3 6 8 10 10 10 2 0 7 -4 10 -10z m411 -116 c-2 -69 -7
-128 -9 -131 -3 -2 -24 5 -47 17 -23 12 -39 24 -36 27 3 3 12 0 21 -7 12 -10
15 -10 15 1 0 11 2 11 10 -1 8 -12 10 -9 10 13 0 24 -3 27 -24 21 -25 -6 -66
23 -66 49 0 8 -3 7 -9 -3 -6 -8 -7 -26 -4 -41 5 -25 3 -27 -17 -22 -17 4 -21
2 -18 -8 3 -8 10 -15 16 -15 7 -1 17 -2 23 -3 5 0 7 -6 4 -11 -4 -6 -10 -8
-15 -5 -5 3 -11 1 -15 -5 -3 -5 -11 -10 -16 -10 -6 0 -7 4 -4 10 3 5 0 8 -7 5
-7 -3 -18 -1 -25 3 -14 9 -25 178 -13 207 7 16 9 13 9 -16 1 -34 4 -37 34 -42
17 -2 35 0 38 6 4 5 10 0 14 -12 3 -12 11 -18 17 -15 7 4 6 9 -2 14 -7 4 -11
13 -9 19 3 8 12 5 25 -8 20 -18 23 -18 37 -4 13 14 19 14 31 3 23 -18 19 3 -4
28 -12 12 -16 22 -11 22 5 0 13 -4 16 -10 10 -16 25 -12 19 5 -6 15 1 45 11
45 3 0 3 -57 1 -126z m76 114 c-7 -7 -12 -20 -12 -30 0 -10 -4 -18 -10 -18
-17 0 -11 38 8 49 23 14 29 14 14 -1z m1311 6 c3 -4 -5 -16 -19 -26 -24 -19
-24 -21 -7 -34 22 -17 10 -18 -16 -2 -18 11 -18 12 2 40 21 29 29 33 40 22z
m1577 -4 c0 -5 -4 -10 -10 -10 -5 0 -10 5 -10 10 0 6 5 10 10 10 6 0 10 -4 10
-10z m2300 6 c0 -3 -4 -8 -10 -11 -5 -3 -10 -1 -10 4 0 6 5 11 10 11 6 0 10
-2 10 -4z m-5400 -49 c-10 -9 -12 -8 -7 6 4 9 2 17 -4 17 -6 0 -7 5 -3 11 5 8
10 6 16 -6 7 -12 6 -21 -2 -28z m80 23 c-8 -5 -17 -7 -19 -4 -3 3 1 9 9 14 8
5 17 7 19 4 3 -3 -1 -9 -9 -14z m2840 10 c0 -5 -5 -10 -11 -10 -5 0 -7 -4 -4
-10 3 -5 2 -10 -4 -10 -17 0 -24 22 -10 31 19 12 29 11 29 -1z m730 0 c0 -5
-2 -10 -4 -10 -3 0 -8 5 -11 10 -3 6 -1 10 4 10 6 0 11 -4 11 -10z m-4058 -93
c-3 -50 -6 -56 -19 -45 -12 10 -18 9 -29 -7 -14 -18 -14 -18 -14 2 0 20 24 38
39 28 4 -2 8 9 8 25 0 16 -4 27 -8 25 -9 -6 -39 5 -39 15 0 4 11 5 25 2 22 -4
25 -1 26 24 0 24 1 26 8 9 4 -11 5 -46 3 -78z m2527 27 c11 13 16 14 23 4 7
-9 8 -4 4 14 -6 26 -5 26 25 18 18 -5 36 -7 40 -4 5 3 9 0 9 -5 0 -6 -12 -11
-26 -11 -15 0 -23 -4 -19 -11 4 -6 14 -8 22 -5 10 4 13 1 9 -12 -6 -18 4 -22
62 -22 15 0 26 -7 29 -20 4 -14 14 -20 34 -20 22 0 28 -4 26 -17 -3 -19 -8
-23 -29 -23 -10 0 -10 3 0 9 10 6 7 10 -13 15 -15 4 -30 5 -33 1 -3 -3 0 -5 6
-5 17 0 15 -37 -3 -44 -9 -3 -15 0 -15 10 0 12 -5 10 -21 -7 l-20 -24 7 24 c4
17 3 21 -6 16 -7 -4 -26 -8 -41 -7 -16 0 -29 -3 -29 -8 0 -4 -7 -11 -16 -14
-12 -5 -15 -2 -10 9 3 9 -1 18 -10 22 -22 8 -29 -4 -13 -23 11 -13 11 -18 2
-21 -7 -3 -13 -9 -13 -14 0 -6 4 -8 9 -4 5 3 12 1 15 -4 4 -5 -2 -11 -11 -13
-10 -3 6 -5 36 -6 30 -1 56 -4 58 -6 3 -2 0 -14 -7 -25 -9 -17 -8 -25 5 -37
15 -15 16 -14 10 12 -3 16 -2 23 1 17 10 -23 24 -14 24 15 0 28 16 52 34 52 6
0 5 -5 -2 -12 -7 -7 -12 -21 -12 -33 0 -16 2 -17 10 -5 6 10 10 11 10 3 0 -7
5 -13 11 -13 5 0 8 4 5 9 -3 5 1 11 9 15 8 3 15 1 15 -4 0 -6 8 -10 19 -10 16
0 18 -7 17 -47 l-1 -48 -100 -2 c-94 -3 -101 -1 -122 22 -29 31 -29 35 2 35
14 0 29 -8 35 -20 6 -11 16 -20 22 -20 6 0 3 11 -7 26 -13 20 -14 28 -4 40 9
11 8 14 -9 14 -15 0 -20 -5 -16 -15 4 -8 1 -15 -5 -15 -6 0 -11 7 -11 15 0 8
-3 14 -7 14 -43 -7 -43 -6 -41 149 0 82 4 127 7 103 5 -40 7 -43 20 -27z
m-3191 31 c0 -36 -15 -40 -16 -5 0 17 3 30 7 30 5 0 9 -11 9 -25z m632 14 c0
-6 -7 -9 -15 -5 -8 3 -19 -2 -24 -12 -9 -15 -10 -15 -11 -1 0 9 3 19 7 22 11
11 43 8 43 -4z m1322 -12 c-12 -6 -22 -17 -22 -25 0 -9 -6 -12 -16 -8 -9 3
-20 6 -25 6 -6 0 -7 5 -4 11 4 6 13 8 19 6 7 -3 18 3 24 14 8 12 18 16 29 12
15 -6 14 -8 -5 -16z m4493 13 c-3 -5 -11 -10 -16 -10 -6 0 -7 5 -4 10 3 6 11
10 16 10 6 0 7 -4 4 -10z m-5885 -30 c0 -3 -13 -5 -28 -5 -22 0 -28 4 -25 16
4 14 9 14 29 5 13 -6 24 -13 24 -16z m482 7 c7 -14 5 -17 -13 -17 -12 0 -19 3
-16 7 4 3 2 12 -4 19 -7 9 -6 12 7 10 9 -1 20 -10 26 -19z m-712 3 c0 -5 -7
-10 -15 -10 -8 0 -15 5 -15 10 0 6 7 10 15 10 8 0 15 -4 15 -10z m142 -40 c-6
-43 -12 -37 -12 13 0 25 4 37 8 29 5 -7 7 -26 4 -42z m2039 19 c-5 -13 -10
-19 -10 -12 -1 15 10 45 15 40 3 -2 0 -15 -5 -28z m1295 18 c17 6 17 -7 0 -29
-14 -19 -32 -25 -21 -8 3 6 1 10 -4 10 -6 0 -11 10 -11 22 0 16 3 19 11 11 6
-6 18 -9 25 -6z m214 -9 c0 -19 -2 -20 -10 -8 -13 19 -13 30 0 30 6 0 10 -10
10 -22z m94 13 c11 -4 15 -10 10 -13 -5 -3 -22 0 -39 7 -23 10 -25 13 -10 13
11 1 29 -3 39 -7z m340 -2 c3 -3 -4 -5 -14 -6 -11 -1 -20 2 -20 7 0 8 25 8 34
-1z m106 -15 c0 -24 -1 -24 -17 -9 -14 14 -14 18 -2 26 19 12 19 12 19 -17z
m-2329 -7 c-13 -13 -26 -3 -16 12 3 6 11 8 17 5 6 -4 6 -10 -1 -17z m1285 3
c8 0 14 5 14 10 0 6 7 10 16 10 8 0 12 -4 9 -10 -3 -5 1 -10 9 -10 9 0 16 -7
16 -15 0 -8 -4 -15 -10 -15 -5 0 -10 -7 -10 -15 0 -11 -11 -15 -36 -15 -31 0
-35 -2 -24 -15 7 -8 17 -12 22 -9 7 5 7 1 0 -11 -12 -23 -49 -27 -57 -7 -3 8
0 21 6 28 8 10 8 14 0 14 -6 0 -11 5 -11 11 0 6 6 9 14 6 8 -3 17 -1 20 6 3 9
8 8 15 -3 9 -13 11 -13 11 1 0 19 -26 33 -35 19 -8 -13 -25 -13 -25 0 0 6 7
10 15 10 8 0 15 8 16 18 0 10 3 12 6 5 2 -7 11 -13 19 -13z m809 -1 c10 -30 2
-32 -12 -3 -6 13 -7 24 -3 24 5 0 12 -9 15 -21z m545 6 c0 -8 -9 -15 -20 -15
-17 0 -19 2 -8 15 17 19 28 19 28 0z m-4820 -14 c0 -5 -9 -11 -20 -14 -22 -6
-26 3 -8 21 11 11 28 7 28 -7z m200 11 c0 -5 -7 -17 -15 -28 -14 -18 -14 -17
-4 9 12 27 19 34 19 19z m3170 -8 c0 -8 -4 -12 -10 -9 -5 3 -10 10 -10 16 0 5
5 9 10 9 6 0 10 -7 10 -16z m480 6 c0 -5 -2 -10 -4 -10 -3 0 -8 5 -11 10 -3 6
-1 10 4 10 6 0 11 -4 11 -10z m92 -12 c-7 -7 -12 -8 -12 -2 0 14 12 26 19 19
2 -3 -1 -11 -7 -17z m148 -10 c0 -4 -10 -7 -22 -5 -18 1 -23 -3 -22 -20 1 -12
-5 -24 -14 -28 -11 -4 -13 1 -10 25 3 17 1 33 -4 36 -5 3 -6 9 -3 14 6 10 75
-10 75 -22z m50 22 c0 -5 -9 -10 -20 -10 -11 0 -20 5 -20 10 0 6 9 10 20 10
11 0 20 -4 20 -10z m320 6 c0 -2 -7 -6 -15 -10 -8 -3 -15 -1 -15 4 0 6 7 10
15 10 8 0 15 -2 15 -4z m-4395 -16 c3 -5 2 -10 -4 -10 -5 0 -13 5 -16 10 -3 6
-2 10 4 10 5 0 13 -4 16 -10z m2214 -6 c7 5 11 -9 11 -43 0 -50 0 -50 -30 -46
-17 2 -28 0 -24 -6 3 -5 9 -7 14 -4 5 3 10 -7 12 -22 2 -16 8 -27 16 -25 6 1
12 -5 12 -14 0 -11 -8 -9 -35 12 -27 21 -35 23 -35 11 0 -9 -9 -21 -20 -27
-19 -10 -20 -8 -20 33 0 23 6 49 12 55 10 10 10 15 -2 22 -10 7 -11 12 -4 18
6 4 13 15 17 25 3 9 12 17 19 17 9 0 9 -3 -2 -10 -11 -7 -12 -12 -3 -21 15
-15 33 -3 33 24 0 16 3 19 9 8 5 -7 14 -10 20 -7z m995 0 c5 -14 4 -15 -9 -4
-17 14 -19 20 -6 20 5 0 12 -7 15 -16z m554 -10 c7 4 12 3 12 -3 0 -6 8 -8 18
-5 16 5 16 5 0 -6 -10 -6 -18 -20 -18 -30 0 -26 16 -25 23 1 3 12 10 18 16 15
6 -4 8 -14 5 -24 -5 -13 -4 -14 4 -3 5 7 15 10 21 7 16 -10 -10 -35 -28 -28
-24 9 -72 6 -79 -5 -4 -6 -18 -13 -32 -17 -24 -7 -24 -6 -6 8 19 16 19 16 -2
16 -12 0 -22 -6 -22 -14 0 -8 -5 -18 -10 -21 -7 -4 -10 7 -9 33 2 32 7 41 30
49 15 6 33 7 40 2 10 -6 11 -9 2 -9 -7 0 -13 -4 -13 -9 0 -5 9 -7 20 -4 19 5
20 7 5 29 -19 29 -20 55 -2 29 8 -10 19 -15 25 -11z m-3730 -9 c-3 -3 -9 2
-12 12 -6 14 -5 15 5 6 7 -7 10 -15 7 -18z m147 4 c11 -17 -1 -21 -15 -4 -8 9
-8 15 -2 15 6 0 14 -5 17 -11z m445 -9 c0 -5 -5 -10 -12 -12 -8 -3 -5 -15 9
-39 l22 -34 -23 -11 c-23 -11 -23 -10 -24 52 0 50 3 62 14 57 8 -3 14 -9 14
-13z m80 10 c0 -10 -26 -20 -34 -13 -11 12 -6 19 14 20 11 1 20 -2 20 -7z
m3610 -10 c0 -11 -2 -20 -4 -20 -2 0 -6 9 -9 20 -3 11 -1 20 4 20 5 0 9 -9 9
-20z m-3900 0 c0 -5 -4 -10 -10 -10 -5 0 -10 5 -10 10 0 6 5 10 10 10 6 0 10
-4 10 -10z m1679 -23 c0 -12 -3 -16 -6 -9 -7 17 -21 15 -26 -5 -3 -12 -5 -8
-6 9 -1 25 15 41 32 31 4 -2 7 -14 6 -26z m2051 23 c0 -5 -2 -10 -4 -10 -3 0
-8 5 -11 10 -3 6 -1 10 4 10 6 0 11 -4 11 -10z m129 -34 c-9 -8 -10 -7 -5 7 3
10 7 24 7 30 1 7 3 4 6 -7 3 -10 -1 -23 -8 -30z m-3979 18 c0 -8 -5 -12 -10
-9 -6 4 -8 11 -5 16 9 14 15 11 15 -7z m168 5 c-2 -6 -8 -10 -13 -10 -5 0 -11
4 -13 10 -2 6 4 11 13 11 9 0 15 -5 13 -11z m3012 -13 c0 -7 12 -11 30 -10 17
1 30 -2 30 -7 0 -5 -6 -9 -12 -9 -10 0 -9 -3 1 -9 9 -6 10 -11 2 -15 -6 -4
-18 0 -27 8 -8 9 -21 16 -27 16 -7 0 -13 11 -13 25 -1 14 2 22 7 19 5 -3 9
-11 9 -18z m430 -1 c0 -14 -6 -25 -12 -26 -10 0 -10 -2 0 -6 19 -8 14 -22 -7
-16 -18 5 -22 25 -8 39 12 12 8 26 -5 18 -7 -4 -8 -3 -4 4 13 22 36 13 36 -13z
m480 -10 c0 -5 -5 -3 -10 5 -5 8 -10 20 -10 25 0 6 5 3 10 -5 5 -8 10 -19 10
-25z m114 19 c9 -23 7 -34 -4 -34 -5 0 -7 7 -4 15 4 8 1 15 -5 15 -6 0 -11 5
-11 10 0 16 17 12 24 -6z m1172 -16 c4 -5 -4 -8 -17 -6 -12 1 -24 8 -26 15 -5
14 34 6 43 -9z m211 0 c-3 -8 -6 -5 -6 6 -1 11 2 17 5 13 3 -3 4 -12 1 -19z
m-1760 -8 c-4 -16 0 -20 22 -20 15 0 31 3 35 7 3 4 13 8 22 9 12 2 14 -7 12
-39 -3 -39 -17 -54 -27 -26 -2 7 1 9 8 5 7 -5 11 1 10 16 0 13 -3 17 -6 9 -4
-9 -7 -10 -12 -2 -7 11 -54 2 -94 -20 -12 -7 -16 -6 -15 3 2 8 -6 13 -19 12
-24 -1 -30 10 -13 21 6 4 17 1 25 -5 11 -9 15 -9 15 -1 0 10 30 51 38 51 3 0
2 -9 -1 -20z m498 10 c3 -5 1 -10 -4 -10 -6 0 -11 5 -11 10 0 6 2 10 4 10 3 0
8 -4 11 -10z m-4256 -42 c1 -5 -3 -8 -9 -8 -5 0 -10 12 -9 28 0 24 1 25 9 7 5
-11 9 -23 9 -27z m450 -23 c1 -54 -2 -66 -18 -75 -26 -13 -31 -13 -31 4 0 9 7
12 20 9 24 -6 28 22 5 31 -8 3 -15 1 -15 -4 0 -6 -4 -10 -10 -10 -5 0 -7 7 -4
15 4 8 1 15 -5 15 -6 0 -11 -4 -11 -10 0 -5 -10 -10 -22 -9 l-23 0 23 11 c27
14 28 20 2 36 -17 10 -20 10 -20 -3 0 -8 -6 -15 -14 -15 -8 0 -13 9 -12 24 1
16 5 21 12 15 6 -5 14 -6 17 -3 3 4 22 -4 41 -16 l36 -22 0 21 c0 12 5 21 11
21 6 0 9 7 5 15 -3 8 -2 15 3 15 5 0 9 -29 10 -65z m2771 45 c9 -17 8 -20 -8
-20 -24 0 -32 8 -25 26 7 20 20 17 33 -6z m460 10 c-18 -11 -63 -13 -57 -2 3
4 20 8 39 9 24 2 29 0 18 -7z m3290 0 c-36 -12 -62 -12 -55 0 3 6 23 10 43 9
33 -1 34 -2 12 -9z m-8190 -10 c0 -5 -2 -10 -4 -10 -3 0 -8 5 -11 10 -3 6 -1
10 4 10 6 0 11 -4 11 -10z m1150 0 c0 -5 -4 -10 -10 -10 -5 0 -10 5 -10 10 0
6 5 10 10 10 6 0 10 -4 10 -10z m180 -43 l0 -21 -19 21 c-11 12 -25 23 -32 25
-7 2 -9 9 -5 16 11 18 56 -15 56 -41z m4194 37 c3 -8 2 -12 -4 -9 -6 3 -10 10
-10 16 0 14 7 11 14 -7z m1194 -14 c-9 -13 -14 -16 -20 -7 -4 6 -2 15 5 19 21
14 28 9 15 -12z m-5320 -24 l0 -34 -25 21 c-20 18 -22 23 -9 25 9 2 16 8 16
13 0 5 4 9 9 9 5 0 9 -15 9 -34z m1521 2 c0 -28 -2 -30 -9 -13 -12 28 -12 45
0 45 6 0 10 -15 9 -32z m1381 28 c0 -2 -7 -7 -16 -10 -8 -3 -12 -2 -9 4 6 10
25 14 25 6z m532 -18 c-6 -6 -15 -8 -19 -4 -4 4 -1 11 7 16 8 5 17 7 19 4 3
-2 -1 -10 -7 -16z m48 2 c0 -17 -2 -19 -14 -8 -10 9 -11 15 -2 20 16 11 16 10
16 -12z m320 -1 c0 -5 -4 -9 -10 -9 -5 0 -10 7 -10 16 0 8 5 12 10 9 6 -3 10
-10 10 -16z m125 1 c-3 -5 -11 -10 -16 -10 -6 0 -7 5 -4 10 3 6 11 10 16 10 6
0 7 -4 4 -10z m253 -8 c2 -7 -2 -10 -12 -6 -9 3 -16 11 -16 16 0 13 23 5 28
-10z m-2671 -50 c8 -18 13 -43 10 -55 -2 -17 -5 -13 -11 16 -5 21 -14 37 -22
37 -8 0 -14 10 -14 23 0 27 13 45 18 25 2 -7 10 -28 19 -46z m46 16 c-7 -37
-18 -36 -17 2 2 43 3 45 13 35 5 -6 7 -22 4 -37z m123 15 c-10 -10 -19 5 -10
18 6 11 8 11 12 0 2 -7 1 -15 -2 -18z m1244 17 c0 -5 -4 -10 -10 -10 -5 0 -10
5 -10 10 0 6 5 10 10 10 6 0 10 -4 10 -10z m125 0 c3 -5 4 -10 1 -10 -2 0 -12
-3 -20 -6 -12 -5 -15 -2 -10 10 7 18 20 21 29 6z m14 -31 c-7 -4 -16 -5 -19
-2 -3 3 1 8 8 10 6 3 13 12 13 21 1 14 2 13 6 -2 3 -10 -1 -22 -8 -27z m235
14 c4 -9 4 -18 1 -21 -3 -3 -5 0 -5 6 0 7 -5 12 -11 12 -6 0 -9 -10 -7 -22 2
-16 9 -22 21 -20 16 3 16 1 5 -18 -8 -13 -14 -16 -17 -8 -6 19 -25 28 -32 16
-4 -6 -23 -12 -43 -13 -20 -1 -42 -8 -51 -15 -26 -21 -45 -4 -45 40 0 23 4 39
8 36 5 -3 7 -19 6 -35 -2 -33 7 -39 25 -17 9 11 9 15 -1 19 -7 3 1 6 19 6 17
1 35 6 38 11 4 6 11 8 16 4 13 -7 51 25 43 37 -3 5 2 6 10 3 8 -3 17 -13 20
-21z m-4124 -14 c0 -13 -7 -19 -24 -19 -26 0 -44 29 -25 40 19 12 49 -1 49
-21z m644 16 c3 -8 1 -15 -4 -15 -6 0 -10 7 -10 15 0 8 2 15 4 15 2 0 6 -7 10
-15z m3026 -12 c0 -30 38 -31 63 -3 9 11 22 20 28 20 7 0 5 -8 -5 -19 -11 -12
-15 -29 -12 -47 2 -16 5 -40 5 -53 1 -16 5 -21 16 -18 8 4 17 2 20 -3 6 -9 1
-11 -37 -14 -7 -1 -12 7 -10 17 2 9 -2 17 -7 17 -6 0 -8 7 -5 15 4 8 3 22 0
31 -5 14 -8 14 -23 -1 -15 -16 -18 -15 -35 7 l-18 23 2 -26 c2 -21 7 -26 26
-26 29 0 38 -13 37 -50 0 -25 -4 -28 -37 -31 l-38 -3 0 80 c0 43 -2 86 -5 93
-4 9 2 14 15 14 14 0 20 -7 20 -23z m45 17 c3 -5 -1 -10 -9 -10 -9 0 -16 5
-16 10 0 6 4 10 9 10 6 0 13 -4 16 -10z m1045 -5 c-7 -9 -15 -13 -19 -10 -3 3
1 10 9 15 21 14 24 12 10 -5z m-3823 -17 c-3 -8 -6 -5 -6 6 -1 11 2 17 5 13 3
-3 4 -12 1 -19z m4583 13 c0 -11 -50 -24 -58 -16 -8 8 19 25 41 25 9 0 17 -4
17 -9z m-1920 -10 c0 -6 -4 -13 -10 -16 -5 -3 -10 1 -10 9 0 9 5 16 10 16 6 0
10 -4 10 -9z m600 -49 c0 -54 -11 -82 -34 -82 -5 0 -6 3 -3 7 8 7 -11 33 -23
33 -5 0 -6 -10 -3 -22 4 -22 3 -22 -11 2 -13 23 -13 25 4 28 10 2 20 12 23 24
3 11 10 17 16 14 5 -4 12 -2 16 3 3 5 -3 14 -12 20 -16 9 -16 12 -3 21 26 17
30 11 30 -48z m66 38 c9 0 12 5 8 11 -4 8 0 8 15 0 25 -14 27 -19 4 -17 -10 1
-19 -10 -25 -31 -13 -48 -28 -40 -27 15 0 26 3 41 6 35 2 -7 11 -13 19 -13z
m379 -10 c-9 -16 -17 -30 -20 -30 -2 0 1 14 6 30 6 17 15 30 20 30 5 0 3 -13
-6 -30z m1855 15 c29 -15 49 -52 34 -64 -5 -3 -14 -15 -20 -26 -17 -31 -41
-29 -72 6 -28 32 -29 34 -14 59 15 22 32 39 40 40 2 0 16 -7 32 -15z m-2944
-13 c-10 -2 -22 0 -28 6 -6 6 0 7 19 4 21 -5 23 -7 9 -10z m1231 -4 c-3 -8 -6
-5 -6 6 -1 11 2 17 5 13 3 -3 4 -12 1 -19z m88 12 c13 -6 15 -9 5 -9 -8 0 -22
4 -30 9 -18 12 -2 12 25 0z m-4312 -37 c-3 -21 -10 -44 -16 -51 -20 -25 -99
11 -82 38 11 17 67 50 87 50 14 0 16 -7 11 -37z m415 12 c-3 -3 -9 2 -12 12
-6 14 -5 15 5 6 7 -7 10 -15 7 -18z m843 14 c11 -5 17 -14 14 -20 -4 -5 -1 -9
5 -9 6 0 8 -5 4 -11 -4 -8 1 -9 17 -4 24 7 24 7 3 -9 -12 -8 -30 -12 -42 -9
-23 6 -30 23 -10 23 6 0 4 7 -5 18 -28 31 -21 40 14 21z m1957 -23 c-2 -10 -7
-13 -17 -7 -8 6 -11 16 -7 27 8 21 30 4 24 -20z m122 11 c0 -24 -33 -47 -66
-47 -19 0 -44 24 -44 41 0 10 3 10 12 1 8 -8 15 -8 24 -1 9 7 19 7 33 0 14 -8
22 -8 27 1 4 7 3 8 -4 4 -7 -4 -12 -3 -12 3 0 8 9 14 28 20 1 1 2 -10 2 -22z
m1015 -25 c-3 -3 -5 0 -5 7 0 7 -4 9 -10 6 -12 -7 -12 -3 -3 21 6 15 7 14 15
-6 5 -13 6 -25 3 -28z m175 38 c0 -5 -5 -10 -11 -10 -5 0 -7 5 -4 10 3 6 8 10
11 10 2 0 4 -4 4 -10z m2076 -13 c20 -18 25 -29 20 -45 -19 -60 -96 -42 -96
22 0 18 3 36 7 39 13 14 42 7 69 -16z m-6144 -9 c-7 -7 -12 -8 -12 -2 0 6 3
14 7 17 3 4 9 5 12 2 2 -3 -1 -11 -7 -17z m3444 10 c4 -5 -7 -8 -24 -8 -18 0
-32 4 -32 8 0 10 46 10 56 0z m34 0 c0 -7 -7 -21 -14 -31 -16 -20 -67 -19 -74
2 -3 8 4 10 22 5 27 -6 60 11 50 27 -3 5 0 9 5 9 6 0 11 -6 11 -12z m94 -4 c9
-8 16 -20 16 -25 0 -5 7 -9 15 -9 8 0 15 -5 15 -11 0 -8 -11 -9 -31 -5 -17 3
-38 6 -45 6 -8 0 -14 5 -14 10 0 6 11 8 25 4 20 -5 24 -3 20 9 -4 8 -13 14
-22 13 -9 0 -18 5 -20 12 -7 17 23 15 41 -4z m434 4 c-6 -18 -28 -21 -28 -4 0
9 7 16 16 16 9 0 14 -5 12 -12z m-3820 -19 c1 -9 -5 -15 -16 -15 -13 0 -18 6
-14 19 5 20 26 18 30 -4z m3182 16 c0 -7 -43 -45 -51 -45 -17 0 5 39 25 43 11
2 22 5 24 6 1 0 2 -1 2 -4z m394 -11 c17 -16 21 -34 9 -34 -5 0 -13 11 -20 25
-13 29 -11 31 11 9z m-3622 -19 c3 -14 1 -28 -3 -31 -5 -3 -9 9 -9 25 0 38 6
40 12 6z m88 10 c-12 -15 -30 -12 -30 6 0 5 10 9 21 9 18 0 19 -2 9 -15z m40
6 c0 -5 -7 -12 -16 -15 -14 -5 -15 -4 -4 9 14 17 20 19 20 6z m828 -3 c-6 -18
-28 -21 -28 -4 0 9 7 16 16 16 9 0 14 -5 12 -12z m205 -20 c4 -31 2 -46 -7
-37 -10 11 -17 69 -8 69 5 0 12 -15 15 -32z m57 16 c0 -8 -5 -12 -10 -9 -6 4
-8 11 -5 16 9 14 15 11 15 -7z m2778 -17 c-16 -33 -18 -33 -18 1 0 24 4 30 15
26 12 -5 12 -10 3 -27z m-3814 8 c19 -15 19 -15 -1 -15 -11 0 -23 7 -27 15 -7
19 3 19 28 0z m2969 8 c-7 -2 -19 -2 -25 0 -7 3 -2 5 12 5 14 0 19 -2 13 -5z
m569 -7 c3 3 8 -2 11 -11 6 -14 4 -14 -23 0 -17 9 -30 18 -30 21 0 2 8 0 19
-5 10 -6 21 -8 23 -5z m-132 -11 c0 -12 -19 -12 -23 0 -4 9 -1 12 9 8 7 -3 14
-7 14 -8z m218 -22 c-14 -18 -19 -12 -11 16 4 16 8 19 14 10 4 -7 3 -19 -3
-26z m-3393 17 c3 -5 -3 -10 -15 -10 -12 0 -18 5 -15 10 3 6 10 10 15 10 5 0
12 -4 15 -10z m2215 -5 c-7 -8 -17 -15 -22 -15 -6 0 -5 7 2 15 7 8 17 15 22
15 6 0 5 -7 -2 -15z m296 6 c-4 -5 0 -12 6 -15 8 -3 7 -5 -2 -3 -9 1 -16 -2
-17 -8 0 -5 3 -9 9 -7 5 1 6 -3 2 -9 -3 -6 0 -15 7 -20 10 -6 3 -9 -20 -9 -33
0 -34 1 -15 14 18 14 18 15 2 21 -25 10 -22 33 5 38 12 2 23 5 25 6 2 0 1 -3
-2 -8z m604 -1 c12 -8 11 -10 -7 -10 -13 0 -23 5 -23 10 0 13 11 13 30 0z
m340 -5 c0 -8 -7 -15 -15 -15 -9 0 -12 6 -9 15 4 8 10 15 15 15 5 0 9 -7 9
-15z m-1130 -5 c0 -5 -9 -10 -20 -10 -11 0 -20 5 -20 10 0 6 9 10 20 10 11 0
20 -4 20 -10z m-2113 -6 c-3 -3 -12 -4 -19 -1 -8 3 -5 6 6 6 11 1 17 -2 13 -5z
m1558 -14 c-4 -12 -1 -27 5 -35 10 -12 9 -15 -4 -15 -12 0 -16 9 -16 35 0 19
5 35 11 35 6 0 8 -9 4 -20z m505 16 c0 -3 -4 -8 -10 -11 -5 -3 -10 -1 -10 4 0
6 5 11 10 11 6 0 10 -2 10 -4z m130 -6 c0 -5 7 -7 15 -4 8 4 15 1 15 -6 0 -8
-11 -11 -30 -8 -21 3 -30 0 -33 -11 -3 -9 -5 -5 -6 9 -1 19 4 26 19 27 11 1
20 -2 20 -7z m590 -4 c0 -3 -4 -8 -10 -11 -5 -3 -10 -1 -10 4 0 6 5 11 10 11
6 0 10 -2 10 -4z m205 -6 c3 -5 -1 -10 -9 -10 -9 0 -16 5 -16 10 0 6 4 10 9
10 6 0 13 -4 16 -10z m-1485 -31 c0 -18 -2 -19 -15 -9 -8 7 -15 16 -15 21 0 5
7 9 15 9 9 0 15 -9 15 -21z m1150 11 c0 -5 -7 -10 -16 -10 -8 0 -12 5 -9 10 3
6 10 10 16 10 5 0 9 -4 9 -10z m-615 -10 c-3 -5 -10 -10 -16 -10 -5 0 -9 5 -9
10 0 6 7 10 16 10 8 0 12 -4 9 -10z m300 0 c3 -5 1 -10 -4 -10 -6 0 -11 5 -11
10 0 6 2 10 4 10 3 0 8 -4 11 -10z m202 4 c-3 -3 -12 -4 -19 -1 -8 3 -5 6 6 6
11 1 17 -2 13 -5z m-2263 -48 c-2 -51 -16 -64 -48 -42 -31 20 -32 26 -5 60 30
38 54 30 53 -18z m-794 14 c0 -22 -19 -60 -34 -72 -14 -10 -46 10 -46 29 0 23
39 63 62 63 11 0 18 -7 18 -20z m5239 -41 c8 -15 11 -36 8 -50 -9 -33 -57 -86
-87 -95 -23 -6 -22 -4 9 25 26 24 31 35 23 43 -16 16 -15 81 0 96 16 16 30 11
47 -19z m-674 -99 c25 -26 27 -33 17 -55 -26 -56 -81 -9 -67 57 8 35 14 35 50
-2z m78 -287 c-7 -2 -19 -2 -25 0 -7 3 -2 5 12 5 14 0 19 -2 13 -5z"/>
<path d="M5526 6724 c-3 -9 -12 -14 -20 -11 -8 3 -18 -5 -25 -19 -12 -28 -4
-32 14 -7 13 17 14 17 32 0 11 -9 23 -17 26 -17 12 0 7 34 -7 53 -12 16 -14
16 -20 1z"/>
<path d="M5533 6363 c9 -2 25 -2 35 0 9 3 1 5 -18 5 -19 0 -27 -2 -17 -5z"/>
<path d="M6160 6472 c0 -4 9 -13 20 -20 18 -11 20 -10 20 8 0 13 -7 20 -20 20
-11 0 -20 -3 -20 -8z"/>
<path d="M5186 6365 c-9 -26 -7 -32 5 -12 6 10 9 21 6 23 -2 3 -7 -2 -11 -11z"/>
<path d="M5290 5902 c0 -4 9 -8 20 -8 11 0 20 4 20 8 0 4 -9 8 -20 8 -11 0
-20 -4 -20 -8z"/>
<path d="M5718 5903 c17 -2 47 -2 65 0 17 2 3 4 -33 4 -36 0 -50 -2 -32 -4z"/>
<path d="M5448 5823 c23 -2 61 -2 85 0 23 2 4 4 -43 4 -47 0 -66 -2 -42 -4z"/>
<path d="M5276 5791 c-3 -4 6 -6 19 -3 14 2 25 6 25 8 0 8 -39 4 -44 -5z"/>
<path d="M5120 5781 c0 -4 24 -6 53 -4 77 7 81 11 10 12 -35 1 -63 -3 -63 -8z"/>
<path d="M5470 5699 c-34 -3 -1 -6 85 -6 144 -1 163 4 40 9 -38 2 -95 0 -125
-3z"/>
<path d="M5423 5653 c9 -2 23 -2 30 0 6 3 -1 5 -18 5 -16 0 -22 -2 -12 -5z"/>
<path d="M5588 5653 c57 -2 147 -2 200 0 53 1 7 3 -103 3 -110 0 -154 -2 -97
-3z"/>
<path d="M8560 4960 c0 -5 5 -10 11 -10 5 0 7 5 4 10 -3 6 -8 10 -11 10 -2 0
-4 -4 -4 -10z"/>
<path d="M5335 4726 c87 -13 204 -11 219 5 2 2 -59 4 -137 4 -123 1 -134 -1
-82 -9z"/>
<path d="M5660 4701 c0 -5 6 -14 14 -20 10 -9 15 -8 19 3 3 8 3 17 0 20 -9 9
-33 7 -33 -3z"/>
<path d="M5720 4650 c0 -5 17 -10 37 -10 43 0 41 7 -5 15 -19 3 -32 1 -32 -5z"/>
<path d="M4928 4663 c7 -3 16 -2 19 1 4 3 -2 6 -13 5 -11 0 -14 -3 -6 -6z"/>
<path d="M5895 4560 c-36 -6 -33 -7 27 -9 37 0 70 4 73 9 7 11 -37 11 -100 0z"/>
<path d="M5678 4533 c7 -3 16 -2 19 1 4 3 -2 6 -13 5 -11 0 -14 -3 -6 -6z"/>
<path d="M5660 4450 c-9 -6 -10 -10 -3 -10 6 0 15 5 18 10 8 12 4 12 -15 0z"/>
<path d="M5738 4453 c7 -3 16 -2 19 1 4 3 -2 6 -13 5 -11 0 -14 -3 -6 -6z"/>
<path d="M4805 4265 c34 -16 95 -20 95 -6 0 5 -10 8 -22 8 -13 -1 -41 2 -63 6
l-40 6 30 -14z"/>
<path d="M5747 4348 c-15 -10 59 -8 138 2 55 7 53 8 -33 6 -51 0 -99 -4 -105
-8z"/>
<path d="M5668 4333 c12 -2 30 -2 40 0 9 3 -1 5 -23 4 -22 0 -30 -2 -17 -4z"/>
<path d="M5458 4313 c12 -2 32 -2 45 0 12 2 2 4 -23 4 -25 0 -35 -2 -22 -4z"/>
<path d="M5368 4303 c12 -2 30 -2 40 0 9 3 -1 5 -23 4 -22 0 -30 -2 -17 -4z"/>
<path d="M5513 4216 c-4 -5 -1 -6 5 -2 7 4 12 2 12 -3 0 -6 9 -11 20 -11 11 0
20 6 20 14 0 15 -48 17 -57 2z"/>
<path d="M4203 3758 c15 -5 25 -14 21 -19 -3 -5 -3 -9 0 -9 3 0 10 9 16 20 10
18 8 20 -27 19 -37 -1 -38 -1 -10 -11z"/>
<path d="M4208 3253 c-24 -6 -23 -23 2 -23 11 0 20 7 20 15 0 8 -1 14 -2 14
-2 -1 -11 -3 -20 -6z"/>
<path d="M4173 3178 c-11 -24 -10 -27 10 -30 12 -2 27 4 34 12 11 13 12 12 13
-4 0 -16 3 -17 12 -8 9 9 8 15 -8 27 -22 17 -38 20 -29 5 3 -5 2 -10 -4 -10
-5 0 -11 8 -13 17 -2 13 -6 11 -15 -9z"/>
<path d="M4083 3173 c0 -7 5 -12 11 -10 15 5 18 24 3 24 -8 0 -14 -6 -14 -14z"/>
<path d="M4210 3122 c0 -6 -8 -12 -17 -14 -13 -3 -10 -6 8 -9 19 -4 26 -2 25
7 -3 17 -16 31 -16 16z"/>
<path d="M4185 3070 c-3 -5 1 -10 9 -10 9 0 16 5 16 10 0 6 -4 10 -9 10 -6 0
-13 -4 -16 -10z"/>
<path d="M4370 4035 c-4 -53 -12 -98 -20 -120 -5 -14 -6 -24 -1 -21 5 4 12 0
14 -6 3 -7 6 8 6 34 1 26 5 57 10 71 6 14 6 29 0 38 -5 8 -9 10 -9 4z"/>
<path d="M4357 3836 c-4 -15 -6 -31 -2 -34 10 -10 16 6 13 35 l-3 28 -8 -29z"/>
<path d="M4453 3843 c9 -2 23 -2 30 0 6 3 -1 5 -18 5 -16 0 -22 -2 -12 -5z"/>
<path d="M4438 3803 c12 -2 32 -2 45 0 12 2 2 4 -23 4 -25 0 -35 -2 -22 -4z"/>
<path d="M4390 3740 c0 -11 2 -20 5 -20 3 0 14 9 25 20 l20 20 -25 0 c-18 0
-25 -5 -25 -20z"/>
<path d="M4452 3723 c-12 -2 -20 -8 -17 -13 6 -10 45 -1 45 11 0 5 -1 8 -2 8
-2 -1 -13 -4 -26 -6z"/>
<path d="M4420 3694 c0 -3 10 -14 23 -25 23 -19 63 -26 52 -9 -3 5 -12 7 -20
3 -9 -3 -15 1 -15 10 0 8 -7 18 -16 21 -20 8 -24 8 -24 0z"/>
<path d="M4440 3608 c0 -4 9 -8 20 -8 11 0 20 4 20 8 0 4 -9 8 -20 8 -11 0
-20 -4 -20 -8z"/>
<path d="M4387 3511 c-3 -12 -1 -24 4 -27 5 -3 9 1 9 8 0 10 2 10 8 1 4 -7 17
-14 27 -16 11 -1 25 -6 31 -10 16 -9 26 19 11 31 -7 5 -20 12 -31 16 -14 5
-17 3 -12 -11 6 -13 1 -12 -17 5 -24 23 -24 23 -30 3z"/>
<path d="M4368 3463 c6 -2 18 -2 25 0 6 3 1 5 -13 5 -14 0 -19 -2 -12 -5z"/>
<path d="M4475 3410 c-3 -5 -1 -10 4 -10 6 0 11 5 11 10 0 6 -2 10 -4 10 -3 0
-8 -4 -11 -10z"/>
<path d="M7248 4113 c7 -3 16 -2 19 1 4 3 -2 6 -13 5 -11 0 -14 -3 -6 -6z"/>
<path d="M6520 3979 c-12 -8 -10 -9 8 -4 13 4 22 2 22 -5 0 -6 5 -8 10 -5 16
10 12 25 -7 25 -10 0 -25 -5 -33 -11z"/>
<path d="M6492 3908 c2 -6 10 -14 16 -16 7 -2 10 2 6 12 -7 18 -28 22 -22 4z"/>
<path d="M5088 3983 c12 -2 30 -2 40 0 9 3 -1 5 -23 4 -22 0 -30 -2 -17 -4z"/>
<path d="M5143 3783 c26 -2 68 -2 95 0 26 2 4 3 -48 3 -52 0 -74 -1 -47 -3z"/>
<path d="M4780 3990 c20 -13 33 -13 25 0 -3 6 -14 10 -23 10 -15 0 -15 -2 -2
-10z"/>
<path d="M4683 3813 c-35 -12 -5 -23 63 -23 47 0 73 4 69 10 -3 6 -1 10 6 10
7 0 9 3 6 6 -4 4 -13 2 -21 -5 -14 -11 -96 -12 -106 0 -3 3 -11 4 -17 2z"/>
<path d="M4843 3793 c9 -2 23 -2 30 0 6 3 -1 5 -18 5 -16 0 -22 -2 -12 -5z"/>
<path d="M4660 3741 c0 -6 6 -11 13 -11 8 0 8 -3 -2 -9 -12 -8 -12 -11 1 -24
12 -12 18 -13 28 -4 9 9 11 8 9 -8 -2 -11 2 -30 9 -42 7 -12 9 -28 6 -36 -5
-15 41 -67 60 -67 5 0 -3 9 -18 21 -26 21 -34 53 -16 64 6 4 7 12 3 18 -4 7
-6 20 -5 29 2 9 -5 18 -15 21 -17 4 -17 5 0 6 9 0 17 8 17 16 0 8 5 15 10 15
14 0 25 -30 14 -39 -13 -9 -11 -36 5 -55 12 -14 12 -16 -2 -11 -11 5 -15 0
-13 -19 2 -36 21 -32 34 7 5 17 10 24 11 15 1 -11 6 -15 16 -12 9 4 15 0 15
-10 0 -9 5 -16 10 -16 6 0 10 7 10 16 0 10 6 14 15 10 8 -3 15 -1 15 4 0 6 -4
10 -10 10 -16 0 -11 28 6 38 11 6 13 11 5 16 -6 4 -11 12 -11 17 0 6 5 7 10 4
6 -3 10 3 10 14 0 19 -6 21 -59 21 -32 0 -86 3 -120 6 -43 5 -61 3 -61 -5z
m70 -15 c0 -3 -4 -8 -10 -11 -5 -3 -10 -1 -10 4 0 6 5 11 10 11 6 0 10 -2 10
-4z"/>
<path d="M4925 3690 c3 -5 10 -10 16 -10 5 0 9 5 9 10 0 6 -7 10 -16 10 -8 0
-12 -4 -9 -10z"/>
<path d="M4948 3672 c-18 -4 -23 -14 -12 -25 4 -3 13 1 21 9 18 17 15 22 -9
16z"/>
<path d="M4660 3641 c0 -11 31 -24 39 -16 3 3 -1 10 -9 15 -19 12 -30 12 -30
1z"/>
<path d="M4930 3600 c0 -22 4 -28 15 -24 8 4 15 17 15 30 0 15 -6 24 -15 24
-10 0 -15 -10 -15 -30z"/>
<path d="M4836 3561 c-4 -6 -4 -15 -1 -21 10 -16 45 -12 52 5 8 22 -6 33 -18
15 -7 -13 -10 -13 -18 -1 -6 9 -11 10 -15 2z"/>
<path d="M4705 3549 c-10 -14 -1 -21 19 -13 9 3 13 10 10 15 -7 12 -21 11 -29
-2z"/>
<path d="M4960 3530 c0 -5 -7 -10 -15 -10 -9 0 -12 -6 -9 -15 10 -25 34 -17
34 10 0 14 -2 25 -5 25 -3 0 -5 -4 -5 -10z"/>
<path d="M4761 3513 c6 -7 20 -13 30 -13 11 0 19 -4 19 -10 0 -5 8 -10 18 -10
20 0 42 18 42 35 0 5 -7 1 -15 -9 -14 -18 -15 -18 -42 0 -34 22 -68 27 -52 7z"/>
<path d="M4806 3445 c-3 -8 -1 -15 3 -15 5 0 11 7 15 15 3 8 1 15 -3 15 -5 0
-11 -7 -15 -15z"/>
<path d="M4795 3231 c-3 -5 -1 -12 5 -16 5 -3 10 1 10 9 0 18 -6 21 -15 7z"/>
<path d="M4670 3170 c0 -23 4 -24 31 -9 23 12 16 29 -12 29 -12 0 -19 -7 -19
-20z"/>
<path d="M4690 3008 c0 -12 26 -15 135 -17 88 -1 135 2 135 9 0 6 -41 10 -112
10 -62 0 -123 3 -135 6 -16 5 -23 2 -23 -8z"/>
<path d="M5830 3819 c-14 -4 -19 -7 -12 -8 7 -1 10 -5 7 -11 -3 -5 -32 -11
-63 -11 -49 -1 -52 -2 -22 -8 19 -4 56 -5 83 -3 38 3 47 8 47 22 0 24 -9 29
-40 19z"/>
<path d="M5778 3813 c7 -3 16 -2 19 1 4 3 -2 6 -13 5 -11 0 -14 -3 -6 -6z"/>
<path d="M5644 3781 c5 -8 56 -3 56 5 0 2 -14 4 -31 4 -16 0 -28 -4 -25 -9z"/>
<path d="M3390 3944 c-25 -13 -52 -24 -60 -24 -36 -1 17 -18 73 -23 43 -4 57
-2 57 8 0 16 -25 26 -45 19 -8 -4 -15 -4 -15 0 0 3 14 9 31 14 25 6 29 10 18
19 -11 8 -25 5 -59 -13z"/>
<path d="M2975 3584 c-19 -19 -15 -27 9 -18 9 3 16 12 16 20 0 18 -5 18 -25
-2z"/>
<path d="M6000 3339 c0 -5 5 -7 10 -4 6 3 10 8 10 11 0 2 -4 4 -10 4 -5 0 -10
-5 -10 -11z"/>
<path d="M5103 3663 c-20 -7 -15 -33 5 -33 24 0 32 8 25 26 -5 15 -10 16 -30
7z"/>
<path d="M5260 3620 c0 -5 5 -10 11 -10 5 0 7 5 4 10 -3 6 -8 10 -11 10 -2 0
-4 -4 -4 -10z"/>
<path d="M5090 3590 c0 -5 5 -10 11 -10 5 0 7 5 4 10 -3 6 -8 10 -11 10 -2 0
-4 -4 -4 -10z"/>
<path d="M5048 3583 c6 -2 18 -2 25 0 6 3 1 5 -13 5 -14 0 -19 -2 -12 -5z"/>
<path d="M5043 3509 c1 -16 6 -19 27 -14 42 11 42 18 -2 29 -23 5 -27 3 -25
-15z"/>
<path d="M5190 3520 c0 -5 5 -10 11 -10 5 0 7 5 4 10 -3 6 -8 10 -11 10 -2 0
-4 -4 -4 -10z"/>
<path d="M5257 3283 c-12 -21 -16 -63 -7 -63 5 0 10 12 10 26 0 14 4 23 10 19
6 -3 10 -2 10 4 0 13 -17 23 -23 14z"/>
<path d="M5227 3183 c-4 -3 -7 -13 -7 -22 1 -13 3 -13 11 2 11 19 8 33 -4 20z"/>
<path d="M3240 3530 c0 -5 5 -10 11 -10 5 0 7 5 4 10 -3 6 -8 10 -11 10 -2 0
-4 -4 -4 -10z"/>
<path d="M3346 3493 c-6 -14 -5 -15 5 -6 7 7 10 15 7 18 -3 3 -9 -2 -12 -12z"/>
<path d="M5536 3448 c7 -11 34 -10 34 1 0 6 -9 9 -19 8 -11 0 -17 -5 -15 -9z"/>
<path d="M5520 3410 c0 -22 8 -25 30 -10 13 9 13 11 0 20 -22 15 -30 12 -30
-10z"/>
<path d="M5853 3362 c-13 -41 -10 -50 11 -33 14 12 19 58 7 65 -4 3 -12 -12
-18 -32z"/>
<path d="M5865 3271 c-3 -5 -1 -12 5 -16 5 -3 10 1 10 9 0 18 -6 21 -15 7z"/>
<path d="M3564 3297 c-3 -10 -4 -21 0 -24 3 -4 6 -1 6 6 0 8 8 6 25 -5 13 -8
29 -13 35 -9 5 3 10 1 10 -6 0 -7 2 -10 5 -7 11 10 -7 37 -21 31 -8 -3 -14 0
-14 7 0 6 -5 8 -11 4 -6 -3 -15 0 -20 7 -6 11 -9 10 -15 -4z"/>
<path d="M3459 3293 c-29 -7 -11 -50 24 -57 17 -4 33 -2 37 4 4 6 13 9 21 7 8
-2 11 -2 7 0 -5 3 -8 16 -8 29 0 13 -5 24 -11 24 -6 0 -8 -8 -4 -19 9 -30 -16
-42 -44 -20 -25 21 -21 25 10 9 16 -9 19 -7 19 10 0 20 -14 23 -51 13z"/>
<path d="M3467 3206 c-4 -9 -2 -16 3 -16 6 0 10 -7 10 -15 0 -9 -6 -12 -15 -8
-13 5 -14 2 -4 -21 7 -15 15 -22 19 -16 4 6 14 8 23 4 11 -4 17 -1 18 7 0 8 7
1 14 -16 8 -16 14 -24 15 -16 0 21 -23 81 -32 81 -4 0 -5 -7 -2 -15 12 -30
-17 -14 -30 16 -10 24 -15 27 -19 15z"/>
<path d="M3325 3270 c3 -5 8 -10 11 -10 2 0 4 5 4 10 0 6 -5 10 -11 10 -5 0
-7 -4 -4 -10z"/>
<path d="M3160 3231 c0 -22 3 -47 6 -56 6 -14 9 -13 22 6 14 20 14 23 -1 34
-10 7 -17 21 -17 31 0 15 4 14 18 -8 18 -31 32 -36 32 -13 0 8 -6 15 -14 15
-8 0 -16 7 -20 15 -11 29 -26 15 -26 -24z"/>
<path d="M3280 3236 c0 -2 7 -6 15 -10 8 -3 15 -1 15 4 0 6 -7 10 -15 10 -8 0
-15 -2 -15 -4z"/>
<path d="M5395 3270 c3 -5 8 -10 11 -10 2 0 4 5 4 10 0 6 -5 10 -11 10 -5 0
-7 -4 -4 -10z"/>
<path d="M5353 3263 c-7 -2 -13 -9 -13 -15 0 -6 7 -8 15 -4 10 4 15 -1 15 -14
0 -11 -7 -20 -15 -20 -8 0 -15 -4 -15 -10 0 -10 27 -3 46 12 6 4 18 6 27 2 19
-7 34 33 18 49 -8 8 -11 7 -11 -2 0 -8 -6 -11 -15 -7 -31 13 -40 14 -52 9z"/>
<path d="M5450 3240 c0 -5 5 -10 11 -10 6 0 8 -7 5 -16 -3 -9 -2 -12 5 -9 5 4
16 1 24 -5 12 -10 15 -9 15 9 0 12 5 19 10 16 6 -3 10 -1 10 4 0 15 -13 14
-29 -1 -10 -11 -14 -10 -22 5 -11 18 -29 23 -29 7z"/>
<path d="M5495 3040 c-3 -5 -1 -10 4 -10 6 0 11 5 11 10 0 6 -2 10 -4 10 -3 0
-8 -4 -11 -10z"/>
<path d="M5550 3014 c0 -17 22 -14 28 4 2 7 -3 12 -12 12 -9 0 -16 -7 -16 -16z"/>
<path d="M5510 3004 c0 -8 5 -12 10 -9 6 3 10 10 10 16 0 5 -4 9 -10 9 -5 0
-10 -7 -10 -16z"/>
<path d="M5707 3273 c-4 -3 -7 -11 -7 -17 0 -6 5 -5 12 2 6 6 9 14 7 17 -3 3
-9 2 -12 -2z"/>
<path d="M4432 3228 c5 -15 28 -18 29 -3 0 6 -7 12 -17 13 -10 3 -15 -1 -12
-10z"/>
<path d="M6025 3110 c-3 -5 1 -10 10 -10 9 0 13 5 10 10 -3 6 -8 10 -10 10 -2
0 -7 -4 -10 -10z"/>
<path d="M5673 3026 c-25 -12 -32 -32 -9 -23 7 3 19 0 25 -6 15 -15 27 -1 13
16 -7 8 -9 17 -5 20 8 9 4 7 -24 -7z"/>
<path d="M6177 3063 c-10 -9 -9 -33 1 -33 4 0 8 9 9 20 2 21 0 24 -10 13z"/>
</g>
</svg>
